<?xml version="1.0" encoding="UTF-8"?>
<svg xmlns="http://www.w3.org/2000/svg" xmlns:xlink="http://www.w3.org/1999/xlink" width="1440pt" height="809.999993pt" viewBox="0 0 1440 809.999993" version="1.2">
<g id="surface1">
<path style=" stroke:none;fill-rule:nonzero;fill:rgb(77.648926%,77.648926%,77.648926%);fill-opacity:1;" d="M 598.5 0 L 396 0 C 351.328125 0 315 36.328125 315 81 L 315 364.5 C 315 409.171875 351.328125 445.5 396 445.5 L 598.5 445.5 C 643.171875 445.5 679.5 409.171875 679.5 364.5 L 679.5 81 C 679.5 36.328125 643.171875 0 598.5 0 Z M 1044 0 L 841.5 0 C 796.828125 0 760.5 36.328125 760.5 81 L 760.5 202.5 C 760.5 247.171875 796.828125 283.5 841.5 283.5 L 1044 283.5 C 1088.671875 283.5 1125 247.171875 1125 202.5 L 1125 81 C 1125 36.328125 1088.671875 0 1044 0 Z M 598.5 526.5 L 396 526.5 C 351.328125 526.5 315 562.828125 315 607.5 L 315 729 C 315 773.671875 351.328125 810 396 810 L 598.5 810 C 643.171875 810 679.5 773.671875 679.5 729 L 679.5 607.5 C 679.5 562.828125 643.171875 526.5 598.5 526.5 Z M 1044 364.5 L 841.5 364.5 C 796.828125 364.5 760.5 400.828125 760.5 445.5 L 760.5 729 C 760.5 773.671875 796.828125 810 841.5 810 L 1044 810 C 1088.671875 810 1125 773.671875 1125 729 L 1125 445.5 C 1125 400.828125 1088.671875 364.5 1044 364.5 Z M 1044 364.5 "/>
</g>
</svg>
