<?xml version="1.0" encoding="UTF-8"?><svg xmlns="http://www.w3.org/2000/svg" xmlns:xlink="http://www.w3.org/1999/xlink" contentScriptType="text/ecmascript" width="1440pt" zoomAndPan="magnify" contentStyleType="text/css" viewBox="0 0 1440 809.999993" height="809.999993pt" preserveAspectRatio="xMidYMid meet" version="1.2"><defs><clipPath xml:id="clip1" id="clip1"><path d="M 496.3125 181.3125 L 943 181.3125 L 943 628.3125 L 496.3125 628.3125 Z M 496.3125 181.3125 "/></clipPath></defs><g xml:id="surface1" id="surface1"><path style=" stroke:none;fill-rule:nonzero;fill:rgb(65.489197%,90.589905%,100%);fill-opacity:1;" d="M 720 0 C 713.371094 0 706.746094 0.164062 700.128906 0.488281 C 693.507812 0.8125 686.898438 1.300781 680.304688 1.949219 C 673.707031 2.601562 667.128906 3.410156 660.574219 4.382812 C 654.019531 5.355469 647.488281 6.488281 640.988281 7.78125 C 634.488281 9.074219 628.023438 10.527344 621.59375 12.136719 C 615.164062 13.746094 608.777344 15.515625 602.433594 17.4375 C 596.09375 19.363281 589.800781 21.441406 583.558594 23.675781 C 577.320312 25.90625 571.136719 28.292969 565.011719 30.828125 C 558.890625 33.367188 552.832031 36.050781 546.839844 38.882812 C 540.847656 41.71875 534.929688 44.699219 529.085938 47.820312 C 523.238281 50.945312 517.472656 54.210938 511.789062 57.621094 C 506.101562 61.027344 500.503906 64.574219 494.992188 68.253906 C 489.484375 71.9375 484.066406 75.753906 478.742188 79.699219 C 473.417969 83.648438 468.195312 87.726562 463.070312 91.929688 C 457.945312 96.136719 452.929688 100.464844 448.019531 104.914062 C 443.109375 109.367188 438.308594 113.933594 433.621094 118.621094 C 428.933594 123.308594 424.367188 128.109375 419.914062 133.019531 C 415.464844 137.929688 411.136719 142.945312 406.929688 148.070312 C 402.726562 153.195312 398.648438 158.417969 394.699219 163.742188 C 390.753906 169.066406 386.9375 174.484375 383.253906 179.992188 C 379.574219 185.503906 376.027344 191.101562 372.621094 196.789062 C 369.210938 202.472656 365.945312 208.238281 362.820312 214.085938 C 359.699219 219.929688 356.71875 225.847656 353.882812 231.839844 C 351.050781 237.832031 348.367188 243.890625 345.828125 250.011719 C 343.292969 256.136719 340.90625 262.320312 338.675781 268.558594 C 336.441406 274.800781 334.363281 281.09375 332.4375 287.433594 C 330.515625 293.777344 328.746094 300.164062 327.136719 306.59375 C 325.527344 313.023438 324.074219 319.488281 322.78125 325.988281 C 321.488281 332.488281 320.355469 339.019531 319.382812 345.574219 C 318.410156 352.128906 317.601562 358.707031 316.949219 365.304688 C 316.300781 371.898438 315.8125 378.507812 315.488281 385.128906 C 315.164062 391.746094 315 398.371094 315 405 C 315 411.628906 315.164062 418.253906 315.488281 424.871094 C 315.8125 431.492188 316.300781 438.101562 316.949219 444.695312 C 317.601562 451.292969 318.410156 457.871094 319.382812 464.425781 C 320.355469 470.980469 321.488281 477.511719 322.78125 484.011719 C 324.074219 490.511719 325.527344 496.976562 327.136719 503.40625 C 328.746094 509.835938 330.515625 516.222656 332.4375 522.566406 C 334.363281 528.90625 336.441406 535.199219 338.675781 541.441406 C 340.90625 547.679688 343.292969 553.863281 345.828125 559.988281 C 348.367188 566.109375 351.050781 572.167969 353.882812 578.160156 C 356.71875 584.152344 359.699219 590.070312 362.820312 595.914062 C 365.945312 601.761719 369.210938 607.527344 372.621094 613.210938 C 376.027344 618.898438 379.574219 624.496094 383.253906 630.007812 C 386.9375 635.515625 390.753906 640.933594 394.699219 646.257812 C 398.648438 651.582031 402.726562 656.804688 406.929688 661.929688 C 411.136719 667.054688 415.464844 672.070312 419.914062 676.980469 C 424.367188 681.890625 428.933594 686.691406 433.621094 691.378906 C 438.308594 696.066406 443.109375 700.632812 448.019531 705.085938 C 452.929688 709.535156 457.945312 713.863281 463.070312 718.070312 C 468.195312 722.273438 473.417969 726.351562 478.742188 730.300781 C 484.066406 734.246094 489.484375 738.0625 494.992188 741.746094 C 500.503906 745.425781 506.101562 748.972656 511.789062 752.378906 C 517.472656 755.789062 523.238281 759.054688 529.085938 762.179688 C 534.929688 765.300781 540.847656 768.28125 546.839844 771.117188 C 552.832031 773.949219 558.890625 776.632812 565.011719 779.171875 C 571.136719 781.707031 577.320312 784.09375 583.558594 786.324219 C 589.800781 788.558594 596.09375 790.636719 602.433594 792.5625 C 608.777344 794.484375 615.164062 796.253906 621.59375 797.863281 C 628.023438 799.472656 634.488281 800.925781 640.988281 802.21875 C 647.488281 803.511719 654.019531 804.644531 660.574219 805.617188 C 667.128906 806.589844 673.707031 807.398438 680.304688 808.050781 C 686.898438 808.699219 693.507812 809.1875 700.128906 809.511719 C 706.746094 809.835938 713.371094 810 720 810 C 726.628906 810 733.253906 809.835938 739.871094 809.511719 C 746.492188 809.1875 753.101562 808.699219 759.695312 808.050781 C 766.292969 807.398438 772.871094 806.589844 779.425781 805.617188 C 785.980469 804.644531 792.511719 803.511719 799.011719 802.21875 C 805.511719 800.925781 811.976562 799.472656 818.40625 797.863281 C 824.835938 796.253906 831.222656 794.484375 837.566406 792.5625 C 843.90625 790.636719 850.199219 788.558594 856.441406 786.324219 C 862.679688 784.09375 868.863281 781.707031 874.988281 779.171875 C 881.109375 776.632812 887.167969 773.949219 893.160156 771.117188 C 899.152344 768.28125 905.070312 765.300781 910.914062 762.179688 C 916.761719 759.054688 922.527344 755.789062 928.210938 752.378906 C 933.898438 748.972656 939.496094 745.425781 945.007812 741.746094 C 950.515625 738.0625 955.933594 734.246094 961.257812 730.300781 C 966.582031 726.351562 971.804688 722.273438 976.929688 718.070312 C 982.054688 713.863281 987.070312 709.535156 991.980469 705.085938 C 996.890625 700.632812 1001.691406 696.066406 1006.378906 691.378906 C 1011.066406 686.691406 1015.632812 681.890625 1020.085938 676.980469 C 1024.535156 672.070312 1028.863281 667.054688 1033.070312 661.929688 C 1037.273438 656.804688 1041.351562 651.582031 1045.300781 646.257812 C 1049.246094 640.933594 1053.0625 635.515625 1056.746094 630.007812 C 1060.425781 624.496094 1063.972656 618.898438 1067.378906 613.210938 C 1070.789062 607.527344 1074.054688 601.761719 1077.179688 595.914062 C 1080.300781 590.070312 1083.28125 584.152344 1086.117188 578.160156 C 1088.949219 572.167969 1091.632812 566.109375 1094.171875 559.988281 C 1096.707031 553.863281 1099.09375 547.679688 1101.324219 541.441406 C 1103.558594 535.199219 1105.636719 528.90625 1107.5625 522.566406 C 1109.484375 516.222656 1111.253906 509.835938 1112.863281 503.40625 C 1114.472656 496.976562 1115.925781 490.511719 1117.21875 484.011719 C 1118.511719 477.511719 1119.644531 470.980469 1120.617188 464.425781 C 1121.589844 457.871094 1122.398438 451.292969 1123.050781 444.695312 C 1123.699219 438.101562 1124.1875 431.492188 1124.511719 424.871094 C 1124.835938 418.253906 1125 411.628906 1125 405 C 1125 398.371094 1124.835938 391.746094 1124.511719 385.128906 C 1124.1875 378.507812 1123.699219 371.898438 1123.050781 365.304688 C 1122.398438 358.707031 1121.589844 352.128906 1120.617188 345.574219 C 1119.644531 339.019531 1118.511719 332.488281 1117.21875 325.988281 C 1115.925781 319.488281 1114.472656 313.023438 1112.863281 306.59375 C 1111.253906 300.164062 1109.484375 293.777344 1107.5625 287.433594 C 1105.636719 281.09375 1103.558594 274.800781 1101.324219 268.558594 C 1099.09375 262.320312 1096.707031 256.136719 1094.171875 250.011719 C 1091.632812 243.890625 1088.949219 237.832031 1086.117188 231.839844 C 1083.28125 225.847656 1080.300781 219.929688 1077.179688 214.085938 C 1074.054688 208.238281 1070.789062 202.472656 1067.378906 196.789062 C 1063.972656 191.101562 1060.425781 185.503906 1056.746094 179.992188 C 1053.0625 174.484375 1049.246094 169.066406 1045.300781 163.742188 C 1041.351562 158.417969 1037.273438 153.195312 1033.070312 148.070312 C 1028.863281 142.945312 1024.535156 137.929688 1020.085938 133.019531 C 1015.632812 128.109375 1011.066406 123.308594 1006.378906 118.621094 C 1001.691406 113.933594 996.890625 109.367188 991.980469 104.914062 C 987.070312 100.464844 982.054688 96.136719 976.929688 91.929688 C 971.804688 87.726562 966.582031 83.648438 961.257812 79.699219 C 955.933594 75.753906 950.515625 71.9375 945.007812 68.253906 C 939.496094 64.574219 933.898438 61.027344 928.210938 57.621094 C 922.527344 54.210938 916.761719 50.945312 910.914062 47.820312 C 905.070312 44.699219 899.152344 41.71875 893.160156 38.882812 C 887.167969 36.050781 881.109375 33.367188 874.988281 30.828125 C 868.863281 28.292969 862.679688 25.90625 856.441406 23.675781 C 850.199219 21.441406 843.90625 19.363281 837.566406 17.4375 C 831.222656 15.515625 824.835938 13.746094 818.40625 12.136719 C 811.976562 10.527344 805.511719 9.074219 799.011719 7.78125 C 792.511719 6.488281 785.980469 5.355469 779.425781 4.382812 C 772.871094 3.410156 766.292969 2.601562 759.695312 1.949219 C 753.101562 1.300781 746.492188 0.8125 739.871094 0.488281 C 733.253906 0.164062 726.628906 0 720 0 Z M 720 0 "/><g clip-rule="nonzero" clip-path="url(#clip1)"><path style=" stroke:none;fill-rule:nonzero;fill:rgb(3.138733%,44.709778%,98.81897%);fill-opacity:1;" d="M 505.101562 181.980469 C 504.683594 182.054688 504.265625 182.167969 503.886719 182.28125 C 499.382812 183.304688 496.199219 187.359375 496.3125 191.980469 L 496.3125 618.617188 C 496.3125 623.957031 500.667969 628.3125 506.007812 628.3125 L 932.648438 628.3125 C 936.132812 628.351562 939.390625 626.53125 941.167969 623.503906 C 942.910156 620.472656 942.910156 616.761719 941.167969 613.730469 C 939.390625 610.699219 936.132812 608.882812 932.648438 608.921875 L 912.042969 608.921875 C 909.125 589.339844 897.382812 515.632812 875.984375 434.386719 L 855.984375 434.386719 C 873.597656 499.648438 885.53125 564.71875 892.042969 608.921875 L 566.003906 608.921875 C 572.519531 564.71875 584.453125 499.648438 602.0625 434.386719 L 582.066406 434.386719 C 560.664062 515.667969 548.921875 589.339844 546.007812 608.921875 L 515.707031 608.921875 L 515.707031 424.691406 C 521.046875 424.691406 525.402344 420.335938 525.402344 414.996094 C 525.402344 409.652344 521.046875 405.296875 515.707031 405.296875 L 515.707031 191.980469 C 515.820312 189.175781 514.683594 186.488281 512.675781 184.59375 C 510.628906 182.660156 507.867188 181.714844 505.101562 181.980469 Z M 729.023438 201.675781 C 677.285156 201.675781 631.570312 267.011719 592.972656 395.601562 L 613.273438 395.601562 C 641.832031 302.578125 681.035156 221.066406 729.023438 221.066406 C 777.015625 221.066406 816.214844 302.578125 844.773438 395.601562 L 865.078125 395.601562 C 826.480469 267.011719 780.765625 201.675781 729.023438 201.675781 Z M 544.792969 405.296875 C 539.453125 405.296875 535.097656 409.652344 535.097656 414.996094 C 535.097656 420.335938 539.453125 424.691406 544.792969 424.691406 C 550.136719 424.691406 554.492188 420.335938 554.492188 414.996094 C 554.492188 409.652344 550.136719 405.296875 544.792969 405.296875 Z M 573.882812 405.296875 C 568.542969 405.296875 564.1875 409.652344 564.1875 414.996094 C 564.1875 420.335938 568.542969 424.691406 573.882812 424.691406 C 579.222656 424.691406 583.582031 420.335938 583.582031 414.996094 C 583.582031 409.652344 579.222656 405.296875 573.882812 405.296875 Z M 602.972656 405.296875 C 597.632812 405.296875 593.277344 409.652344 593.277344 414.996094 C 593.277344 420.335938 597.632812 424.691406 602.972656 424.691406 C 608.3125 424.691406 612.667969 420.335938 612.667969 414.996094 C 612.667969 409.652344 608.3125 405.296875 602.972656 405.296875 Z M 632.0625 405.296875 C 626.722656 405.296875 622.367188 409.652344 622.367188 414.996094 C 622.367188 420.335938 626.722656 424.691406 632.0625 424.691406 C 637.402344 424.691406 641.757812 420.335938 641.757812 414.996094 C 641.757812 409.652344 637.402344 405.296875 632.0625 405.296875 Z M 661.152344 405.296875 C 655.808594 405.296875 651.453125 409.652344 651.453125 414.996094 C 651.453125 420.335938 655.808594 424.691406 661.152344 424.691406 C 666.492188 424.691406 670.847656 420.335938 670.847656 414.996094 C 670.847656 409.652344 666.492188 405.296875 661.152344 405.296875 Z M 690.238281 405.296875 C 684.898438 405.296875 680.542969 409.652344 680.542969 414.996094 C 680.542969 420.335938 684.898438 424.691406 690.238281 424.691406 C 695.582031 424.691406 699.9375 420.335938 699.9375 414.996094 C 699.9375 409.652344 695.582031 405.296875 690.238281 405.296875 Z M 719.328125 405.296875 C 713.988281 405.296875 709.632812 409.652344 709.632812 414.996094 C 709.632812 420.335938 713.988281 424.691406 719.328125 424.691406 C 724.667969 424.691406 729.023438 420.335938 729.023438 414.996094 C 729.023438 409.652344 724.667969 405.296875 719.328125 405.296875 Z M 748.417969 405.296875 C 743.078125 405.296875 738.722656 409.652344 738.722656 414.996094 C 738.722656 420.335938 743.078125 424.691406 748.417969 424.691406 C 753.757812 424.691406 758.113281 420.335938 758.113281 414.996094 C 758.113281 409.652344 753.757812 405.296875 748.417969 405.296875 Z M 777.507812 405.296875 C 772.164062 405.296875 767.808594 409.652344 767.808594 414.996094 C 767.808594 420.335938 772.164062 424.691406 777.507812 424.691406 C 782.847656 424.691406 787.203125 420.335938 787.203125 414.996094 C 787.203125 409.652344 782.847656 405.296875 777.507812 405.296875 Z M 806.59375 405.296875 C 801.253906 405.296875 796.898438 409.652344 796.898438 414.996094 C 796.898438 420.335938 801.253906 424.691406 806.59375 424.691406 C 811.9375 424.691406 816.292969 420.335938 816.292969 414.996094 C 816.292969 409.652344 811.9375 405.296875 806.59375 405.296875 Z M 835.683594 405.296875 C 830.34375 405.296875 825.988281 409.652344 825.988281 414.996094 C 825.988281 420.335938 830.34375 424.691406 835.683594 424.691406 C 841.023438 424.691406 845.378906 420.335938 845.378906 414.996094 C 845.378906 409.652344 841.023438 405.296875 835.683594 405.296875 Z M 864.773438 405.296875 C 859.433594 405.296875 855.078125 409.652344 855.078125 414.996094 C 855.078125 420.335938 859.433594 424.691406 864.773438 424.691406 C 870.113281 424.691406 874.46875 420.335938 874.46875 414.996094 C 874.46875 409.652344 870.113281 405.296875 864.773438 405.296875 Z M 893.863281 405.296875 C 888.523438 405.296875 884.164062 409.652344 884.164062 414.996094 C 884.164062 420.335938 888.523438 424.691406 893.863281 424.691406 C 899.203125 424.691406 903.558594 420.335938 903.558594 414.996094 C 903.558594 409.652344 899.203125 405.296875 893.863281 405.296875 Z M 922.949219 405.296875 C 917.609375 405.296875 913.253906 409.652344 913.253906 414.996094 C 913.253906 420.335938 917.609375 424.691406 922.949219 424.691406 C 928.292969 424.691406 932.648438 420.335938 932.648438 414.996094 C 932.648438 409.652344 928.292969 405.296875 922.949219 405.296875 Z M 922.949219 405.296875 "/></g></g></svg>