<?xml version="1.0" encoding="UTF-8"?>
<svg xmlns="http://www.w3.org/2000/svg" xmlns:xlink="http://www.w3.org/1999/xlink" width="42.5pt" height="42.499999pt" viewBox="0 0 52.5 52.499999" version="1.2">
<defs>
<clipPath id="clip1">
  <path d="M 0.375 0.375 L 37 0.375 L 37 37 L 0.375 37 Z M 0.375 0.375 "/>
</clipPath>
<clipPath id="clip2">
  <path d="M 32 33 L 52 33 L 52 52.003906 L 32 52.003906 Z M 32 33 "/>
</clipPath>
</defs>
<g id="surface1">
<g clip-path="url(#clip1)" clip-rule="nonzero">
<path style=" stroke:none;fill-rule:nonzero;fill:rgb(61.569214%,61.569214%,61.569214%);fill-opacity:1;" d="M 18.5 6.332031 C 25.21875 6.332031 30.664062 11.777344 30.664062 18.488281 C 30.664062 25.210938 25.21875 30.65625 18.5 30.65625 C 11.785156 30.65625 6.339844 25.210938 6.339844 18.488281 C 6.339844 11.777344 11.785156 6.332031 18.5 6.332031 M 18.5 0.375 C 8.511719 0.375 0.382812 8.503906 0.382812 18.488281 C 0.382812 28.484375 8.511719 36.609375 18.5 36.609375 C 28.492188 36.609375 36.617188 28.484375 36.617188 18.488281 C 36.617188 8.503906 28.492188 0.375 18.5 0.375 Z M 18.5 0.375 "/>
</g>
<g clip-path="url(#clip2)" clip-rule="nonzero">
<path style=" stroke:none;fill-rule:nonzero;fill:rgb(61.569214%,61.569214%,61.569214%);fill-opacity:1;" d="M 46.667969 52.121094 C 45.394531 52.121094 44.128906 51.636719 43.160156 50.667969 L 34.347656 41.851562 C 32.410156 39.917969 32.410156 36.777344 34.347656 34.835938 C 36.289062 32.894531 39.429688 32.894531 41.367188 34.835938 L 50.179688 43.648438 C 52.121094 45.585938 52.121094 48.726562 50.179688 50.667969 C 49.210938 51.636719 47.941406 52.121094 46.667969 52.121094 Z M 46.667969 52.121094 "/>
</g>
<path style=" stroke:none;fill-rule:nonzero;fill:rgb(61.569214%,61.569214%,61.569214%);fill-opacity:1;" d="M 32.515625 28.796875 L 37.355469 33.632812 L 33.144531 37.847656 L 28.304688 33.011719 Z M 32.515625 28.796875 "/>
</g>
</svg>
