<?xml version="1.0" encoding="UTF-8"?>
<svg xmlns="http://www.w3.org/2000/svg" xmlns:xlink="http://www.w3.org/1999/xlink" width="1440pt" height="809.999993pt" viewBox="0 0 1440 809.999993" version="1.2">
<g id="surface1">
<path style=" stroke:none;fill-rule:nonzero;fill:rgb(3.138733%,44.709778%,98.81897%);fill-opacity:1;" d="M 448.964844 655.203125 C 459.074219 655.203125 469.1875 652.675781 478.664062 648.253906 L 491.933594 641.933594 C 498.253906 638.773438 500.78125 631.195312 497.621094 624.875 L 387.035156 401.210938 C 383.875 394.890625 376.292969 392.363281 369.972656 395.523438 L 356.703125 401.839844 C 323.84375 418.269531 309.941406 458.707031 326.371094 491.558594 L 388.933594 617.925781 C 400.9375 641.300781 424.320312 655.203125 448.964844 655.203125 Z M 448.964844 655.203125 "/>
<path style=" stroke:none;fill-rule:nonzero;fill:rgb(3.138733%,44.709778%,98.81897%);fill-opacity:1;" d="M 852.132812 45.492188 C 848.339844 45.492188 843.917969 47.386719 841.390625 50.546875 C 840.125 51.808594 716.269531 209.765625 665.082031 248.9375 C 608.839844 291.902344 414.207031 370.882812 412.3125 371.511719 C 409.152344 372.777344 406.625 375.304688 405.363281 378.464844 C 404.097656 381.621094 404.097656 385.414062 405.992188 388.574219 L 517.210938 611.605469 C 518.476562 614.765625 521.636719 617.292969 524.796875 617.925781 C 526.058594 618.558594 527.324219 618.558594 528.585938 618.558594 C 530.484375 618.558594 533.011719 617.925781 534.90625 616.660156 C 536.171875 616.03125 718.796875 513.042969 787.042969 494.085938 C 849.605469 477.027344 1049.925781 473.238281 1051.820312 473.238281 C 1056.242188 473.238281 1060.035156 470.710938 1062.5625 466.917969 C 1065.089844 463.128906 1065.089844 458.707031 1063.195312 454.914062 L 862.242188 52.441406 C 860.347656 48.652344 856.554688 46.125 852.132812 45.492188 Z M 533.640625 588.859375 L 434.429688 389.835938 C 476.136719 372.777344 608.210938 317.175781 668.242188 278.003906 L 766.191406 475.132812 C 698.574219 497.878906 572.191406 566.746094 533.640625 588.859375 Z M 1011.378906 449.226562 L 836.335938 97.300781 C 840.757812 91.613281 845.179688 85.929688 848.972656 81.503906 L 1031.597656 448.597656 C 1025.910156 448.597656 1018.960938 448.597656 1011.378906 449.226562 Z M 1011.378906 449.226562 "/>
<path style=" stroke:none;fill-rule:nonzero;fill:rgb(3.138733%,44.709778%,98.81897%);fill-opacity:1;" d="M 633.488281 767.667969 C 639.171875 767.667969 645.492188 766.402344 651.179688 763.246094 L 664.449219 756.925781 C 673.929688 752.503906 680.878906 744.289062 684.671875 734.179688 C 687.832031 724.070312 687.199219 713.332031 682.777344 703.851562 L 634.117188 600.234375 C 632.855469 597.074219 630.328125 594.546875 626.535156 593.914062 C 623.375 592.652344 619.585938 593.285156 616.425781 594.546875 L 554.496094 625.507812 C 548.175781 628.667969 545.648438 636.25 548.808594 641.933594 L 597.464844 746.1875 C 605.050781 760.085938 618.953125 767.667969 633.488281 767.667969 Z M 633.488281 767.667969 "/>
<path style=" stroke:none;fill-rule:nonzero;fill:rgb(3.138733%,44.709778%,98.81897%);fill-opacity:1;" d="M 1029.070312 1.894531 C 1022.75 0 1015.167969 3.160156 1013.273438 10.109375 L 969.671875 140.898438 C 967.140625 147.214844 970.933594 154.796875 977.886719 156.691406 C 979.148438 157.324219 980.414062 157.324219 981.675781 157.324219 C 986.730469 157.324219 991.789062 154.164062 993.683594 148.480469 L 1037.285156 17.691406 C 1039.183594 11.371094 1035.390625 4.421875 1029.070312 1.894531 Z M 1029.070312 1.894531 "/>
<path style=" stroke:none;fill-rule:nonzero;fill:rgb(3.138733%,44.709778%,98.81897%);fill-opacity:1;" d="M 1115.644531 336.132812 C 1120.699219 336.132812 1125.753906 332.972656 1127.652344 327.285156 C 1130.179688 320.96875 1126.386719 313.386719 1119.4375 311.488281 L 1064.457031 293.167969 C 1058.140625 291.269531 1050.554688 294.429688 1048.660156 301.378906 C 1046.132812 307.699219 1049.925781 315.28125 1056.875 317.175781 L 1111.851562 335.5 C 1113.117188 335.5 1114.378906 336.132812 1115.644531 336.132812 Z M 1115.644531 336.132812 "/>
<path style=" stroke:none;fill-rule:nonzero;fill:rgb(3.138733%,44.709778%,98.81897%);fill-opacity:1;" d="M 1127.019531 171.855469 C 1123.859375 165.539062 1116.277344 163.011719 1109.957031 166.171875 L 1025.910156 207.871094 C 1019.59375 211.03125 1017.0625 218.613281 1020.222656 224.929688 C 1022.121094 229.351562 1027.175781 231.878906 1031.597656 231.878906 C 1033.496094 231.878906 1035.390625 231.25 1037.285156 230.617188 L 1121.332031 188.914062 C 1127.652344 185.757812 1130.179688 178.175781 1127.019531 171.855469 Z M 1127.019531 171.855469 "/>
<path style=" stroke:none;fill-rule:nonzero;fill:rgb(3.138733%,44.709778%,98.81897%);fill-opacity:1;" d="M 967.140625 631.824219 C 970.300781 631.824219 974.09375 631.195312 977.253906 630.5625 C 997.476562 626.140625 1012.007812 609.710938 1015.167969 590.757812 L 1067.617188 588.230469 C 1074.570312 588.230469 1080.257812 581.910156 1079.625 574.960938 C 1078.992188 568.011719 1073.304688 562.324219 1066.355469 562.957031 L 1012.640625 565.484375 C 1004.425781 544 981.042969 530.734375 957.664062 535.789062 C 931.753906 541.472656 914.691406 566.746094 920.378906 593.285156 C 922.90625 604.023438 928.59375 612.871094 936.179688 619.820312 L 917.21875 667.207031 C 911.53125 666.574219 905.84375 666.574219 900.160156 667.839844 C 885.625 671 874.25 680.476562 867.296875 692.480469 L 834.4375 682.371094 C 834.4375 679.210938 833.804688 676.054688 833.175781 672.894531 C 827.488281 646.988281 802.210938 629.929688 775.667969 635.617188 C 749.761719 641.300781 732.699219 666.574219 738.386719 693.113281 C 739.648438 698.796875 741.546875 703.851562 744.707031 708.277344 L 716.902344 738.605469 C 712.476562 743.660156 712.476562 751.871094 717.53125 756.292969 C 720.058594 758.191406 723.21875 759.453125 725.746094 759.453125 C 728.90625 759.453125 732.699219 758.191406 735.226562 755.03125 L 762.398438 724.703125 C 769.351562 728.496094 776.933594 730.390625 785.148438 730.390625 C 788.308594 730.390625 792.097656 729.757812 795.257812 729.125 C 809.160156 725.96875 820.535156 717.121094 827.488281 705.75 L 860.980469 715.859375 C 860.980469 718.386719 861.609375 721.542969 862.242188 724.070312 C 867.296875 746.816406 887.519531 762.613281 909.636719 762.613281 C 912.796875 762.613281 916.589844 761.980469 919.75 761.347656 C 945.65625 755.664062 962.71875 729.757812 957.03125 703.851562 C 954.503906 692.480469 948.816406 683.003906 939.335938 676.054688 L 957.664062 629.296875 C 960.824219 631.824219 963.984375 631.824219 967.140625 631.824219 Z M 790.835938 706.378906 C 778.195312 708.90625 766.191406 700.695312 763.664062 688.691406 C 761.136719 676.054688 769.351562 664.046875 781.355469 661.519531 C 783.253906 660.890625 784.515625 660.890625 786.410156 660.890625 C 797.15625 660.890625 806.632812 668.472656 809.160156 679.210938 C 811.058594 691.21875 803.472656 703.222656 790.835938 706.378906 Z M 914.691406 738.605469 C 902.054688 741.132812 890.046875 732.917969 887.519531 720.914062 C 884.992188 708.277344 893.207031 696.269531 905.214844 693.742188 C 907.109375 693.113281 908.375 693.113281 910.269531 693.113281 C 914.691406 693.113281 919.117188 694.375 922.90625 696.902344 C 927.964844 700.0625 931.753906 705.75 933.019531 711.433594 C 934.914062 723.441406 927.332031 736.078125 914.691406 738.605469 Z M 944.394531 588.230469 C 941.867188 575.59375 950.082031 563.589844 962.085938 561.0625 C 963.984375 560.429688 965.246094 560.429688 967.140625 560.429688 C 977.886719 560.429688 987.363281 568.011719 989.890625 578.753906 C 992.417969 591.386719 984.203125 603.394531 972.199219 605.921875 C 959.558594 609.078125 946.921875 600.867188 944.394531 588.230469 Z M 944.394531 588.230469 "/>
<path style=" stroke:none;fill-rule:nonzero;fill:rgb(3.138733%,44.709778%,98.81897%);fill-opacity:1;" d="M 1115.644531 418.269531 C 1108.691406 418.269531 1103.007812 423.953125 1103.007812 430.90625 L 1103.007812 784.726562 L 610.105469 784.726562 C 603.152344 784.726562 597.464844 790.414062 597.464844 797.363281 C 597.464844 804.3125 603.152344 810 610.105469 810 L 1115.644531 810 C 1122.59375 810 1128.28125 804.3125 1128.28125 797.363281 L 1128.28125 430.90625 C 1128.28125 423.953125 1122.59375 418.269531 1115.644531 418.269531 Z M 1115.644531 418.269531 "/>
</g>
</svg>
