<?xml version="1.0" encoding="UTF-8"?>
<svg xmlns="http://www.w3.org/2000/svg" xmlns:xlink="http://www.w3.org/1999/xlink" width="1440pt" height="809.999993pt" viewBox="0 0 1440 809.999993" version="1.2">
<defs>
<clipPath id="clip1">
  <path d="M 342.335938 3.621094 L 1097.585938 3.621094 L 1097.585938 806.378906 L 342.335938 806.378906 Z M 342.335938 3.621094 "/>
</clipPath>
</defs>
<g id="surface1">
<g clip-path="url(#clip1)" clip-rule="nonzero">
<path style=" stroke:none;fill-rule:nonzero;fill:rgb(77.648926%,77.648926%,77.648926%);fill-opacity:1;" d="M 552.628906 529.078125 L 708.402344 529.078125 L 708.402344 806.378906 L 552.628906 806.378906 Z M 748.878906 389.25 L 904.726562 389.25 L 904.726562 806.378906 L 748.878906 806.378906 Z M 942.710938 291.113281 L 1098.554688 291.113281 L 1098.554688 806.378906 L 942.710938 806.378906 Z M 764.484375 276.789062 C 767.121094 264.53125 768.546875 251.847656 768.546875 238.804688 C 768.546875 139.671875 688.164062 59.28125 589.042969 59.28125 C 489.917969 59.28125 409.535156 139.671875 409.535156 238.804688 C 409.535156 319.480469 463.410156 390.246094 540.871094 411.769531 L 638.070312 411.699219 L 694.292969 292.753906 C 699.070312 282.707031 709.046875 276.789062 719.449219 276.789062 Z M 589.042969 3.621094 C 718.878906 3.621094 824.203125 108.957031 824.203125 238.804688 C 824.203125 250.136719 823.347656 261.324219 821.78125 272.230469 L 971.925781 122.996094 L 900.167969 142.308594 C 864.820312 151.785156 850.496094 98.050781 885.773438 88.644531 L 1060.433594 41.75 C 1081.382812 36.121094 1100.054688 55.71875 1094.351562 76.101562 L 1047.746094 250.421875 C 1038.339844 285.769531 984.609375 271.375 994.015625 236.097656 L 1014.753906 158.699219 L 849.644531 322.757812 C 844.582031 328.671875 837.03125 332.378906 828.621094 332.378906 L 736.980469 332.378906 L 681.539062 449.683594 C 677.476562 460.019531 667.429688 467.359375 655.601562 467.359375 L 550.847656 467.359375 L 493.410156 575.898438 C 489.0625 585.734375 479.300781 592.503906 467.898438 592.503906 L 369.773438 592.503906 C 333.214844 592.503906 333.214844 536.84375 369.773438 536.84375 L 451.222656 536.84375 L 494.90625 454.386719 C 409.464844 416.972656 353.882812 332.519531 353.882812 238.804688 C 353.882812 108.957031 459.207031 3.621094 589.042969 3.621094 Z M 498.542969 268.808594 L 542.367188 264.460938 C 547.355469 292.113281 562.035156 307.078125 590.824219 307.078125 C 609.777344 307.078125 634.433594 299.382812 634.433594 276.433594 C 634.433594 252.558594 595.953125 248.140625 577.855469 243.578125 C 542.367188 234.671875 506.949219 219.0625 506.949219 176.515625 C 506.949219 138.53125 536.949219 120.144531 570.085938 115.441406 L 570.085938 90.496094 L 607.996094 90.496094 L 607.996094 115.511719 C 643.839844 120.5 671.492188 140.097656 672.988281 182.289062 L 627.878906 183.929688 C 623.890625 159.839844 611.0625 151.5 587.332031 151.5 C 573.648438 151.5 549.847656 155.636719 549.847656 173.523438 C 549.847656 192.765625 583.769531 198.753906 597.734375 202.03125 C 640.992188 212.222656 679.542969 225.050781 679.542969 276.148438 C 679.542969 320.261719 645.550781 339.578125 607.996094 343.996094 L 607.996094 367.511719 L 570.085938 367.511719 L 570.085938 343.710938 C 529.683594 338.222656 504.027344 314.988281 498.542969 268.808594 Z M 358.726562 654.292969 L 514.574219 654.292969 L 514.574219 806.378906 L 358.726562 806.378906 L 358.726562 654.292969 "/>
</g>
</g>
</svg>
