<?xml version="1.0" encoding="UTF-8"?>
<svg xmlns="http://www.w3.org/2000/svg" xmlns:xlink="http://www.w3.org/1999/xlink" width="1440pt" height="809.999993pt" viewBox="0 0 1440 809.999993" version="1.2">
<defs>
<clipPath id="clip1">
  <path d="M 201 583 L 935 583 L 935 766.433594 L 201 766.433594 Z M 201 583 "/>
</clipPath>
<clipPath id="clip2">
  <path d="M 948 583 L 1240 583 L 1240 766.433594 L 948 766.433594 Z M 948 583 "/>
</clipPath>
</defs>
<g id="surface1">
<path style=" stroke:none;fill-rule:nonzero;fill:rgb(3.138733%,44.709778%,98.81897%);fill-opacity:1;" d="M 285.824219 153.683594 L 564.175781 212.164062 C 565.210938 212.378906 566.25 212.5 567.316406 212.5 C 568.324219 212.5 569.359375 212.378906 570.367188 212.195312 L 811.320312 163.171875 L 811.320312 276.929688 L 780.90625 412.53125 C 779.902344 417.046875 780.96875 421.804688 783.925781 425.4375 C 786.855469 429.035156 791.15625 431.171875 795.855469 431.171875 L 857.167969 431.171875 C 861.742188 431.171875 866.167969 429.125 869.066406 425.4375 C 872.023438 421.835938 873.089844 417.136719 872.085938 412.59375 L 841.886719 276.929688 L 841.886719 156.949219 L 857.625 153.777344 C 864.761719 152.3125 869.828125 146.027344 869.828125 138.769531 C 869.765625 131.539062 864.640625 125.285156 857.503906 123.851562 L 570.246094 67.871094 C 568.292969 67.535156 566.28125 67.535156 564.328125 67.933594 L 285.976562 123.878906 C 278.898438 125.3125 273.773438 131.507812 273.742188 138.738281 C 273.683594 145.9375 278.746094 152.191406 285.824219 153.683594 Z M 826.511719 348.527344 L 838.101562 400.574219 L 814.828125 400.574219 Z M 826.511719 348.527344 "/>
<path style=" stroke:none;fill-rule:nonzero;fill:rgb(3.138733%,44.709778%,98.81897%);fill-opacity:1;" d="M 750.3125 400.601562 L 750.3125 339.589844 C 750.3125 325.617188 750.3125 301.121094 719.808594 295.171875 L 719.808594 280.53125 C 675.421875 291.421875 622.285156 297.707031 567.285156 297.707031 C 512.257812 297.707031 459.117188 291.480469 414.765625 280.53125 L 414.765625 299.808594 C 402.683594 306.796875 384.261719 320.554688 384.261719 339.621094 L 384.261719 400.632812 C 384.261719 422.875 408.265625 439.070312 430.292969 444.441406 C 434.347656 538.460938 481.203125 629.429688 567.285156 629.429688 C 653.367188 629.429688 700.222656 538.460938 704.28125 444.441406 C 726.335938 439.011719 750.3125 422.8125 750.3125 400.601562 Z M 750.3125 400.601562 "/>
<path style=" stroke:none;fill-rule:nonzero;fill:rgb(3.138733%,44.709778%,98.81897%);fill-opacity:1;" d="M 719.835938 217.566406 L 719.835938 212.898438 L 576.4375 242.0625 C 573.417969 242.703125 570.335938 242.976562 567.316406 242.976562 C 564.144531 242.976562 561.003906 242.640625 557.921875 242 L 414.796875 211.953125 L 414.796875 249.140625 C 501.425781 272.050781 633.144531 272.050781 719.835938 249.171875 Z M 719.835938 217.566406 "/>
<path style=" stroke:none;fill-rule:nonzero;fill:rgb(3.138733%,44.709778%,98.81897%);fill-opacity:1;" d="M 412.964844 575.679688 L 456.675781 607.132812 C 444.476562 592.730469 434.226562 576.105469 425.988281 558.167969 Z M 412.964844 575.679688 "/>
<path style=" stroke:none;fill-rule:nonzero;fill:rgb(3.138733%,44.709778%,98.81897%);fill-opacity:1;" d="M 517.65625 651.121094 L 567.347656 686.9375 L 617.679688 650.878906 C 602.425781 656.613281 585.648438 659.875 567.316406 659.875 C 549.226562 659.875 532.726562 656.734375 517.65625 651.121094 Z M 517.65625 651.121094 "/>
<g clip-path="url(#clip1)" clip-rule="nonzero">
<path style=" stroke:none;fill-rule:nonzero;fill:rgb(3.138733%,44.709778%,98.81897%);fill-opacity:1;" d="M 933.335938 736.140625 C 933.335938 735.074219 933.277344 734.066406 933.03125 732.96875 C 927.664062 648.4375 855.519531 583.609375 764.375 583.609375 L 764.191406 583.609375 L 576.191406 718.082031 C 573.539062 720.003906 570.429688 720.949219 567.316406 720.949219 C 564.175781 720.949219 561.0625 719.945312 558.410156 718.023438 L 371.753906 583.609375 L 369.070312 583.609375 C 276.945312 583.609375 206.664062 647.246094 201.601562 733.152344 C 201.417969 734.097656 201.296875 735.074219 201.296875 736.140625 L 201.296875 751.394531 C 201.296875 759.785156 208.128906 766.648438 216.546875 766.648438 L 918.144531 766.648438 C 926.535156 766.648438 933.398438 759.785156 933.398438 751.394531 L 933.398438 747.398438 C 933.792969 746.027344 934.007812 744.59375 934.007812 743.097656 C 934.007812 741.574219 933.792969 740.140625 933.398438 738.765625 Z M 933.335938 736.140625 "/>
</g>
<path style=" stroke:none;fill-rule:nonzero;fill:rgb(3.138733%,44.709778%,98.81897%);fill-opacity:1;" d="M 721.300781 576.746094 L 708.308594 558.871094 C 699.859375 577.234375 689.363281 594.042969 676.796875 608.566406 Z M 721.300781 576.746094 "/>
<path style=" stroke:none;fill-rule:nonzero;fill:rgb(3.138733%,44.709778%,98.81897%);fill-opacity:1;" d="M 900.332031 138.613281 C 900.390625 157.253906 889.074219 173.851562 872.328125 180.957031 L 872.328125 212.5 C 873.335938 212.5 874.402344 212.378906 875.441406 212.195312 L 1116.363281 163.171875 L 1116.363281 276.929688 L 1085.949219 412.53125 C 1084.941406 417.046875 1086.011719 421.804688 1088.96875 425.4375 C 1091.898438 429.035156 1096.199219 431.171875 1100.898438 431.171875 L 1162.210938 431.171875 C 1166.785156 431.171875 1171.210938 429.125 1174.105469 425.4375 C 1177.066406 421.835938 1178.132812 417.136719 1177.128906 412.59375 L 1146.929688 276.929688 L 1146.929688 156.949219 L 1162.667969 153.777344 C 1169.804688 152.3125 1174.871094 146.027344 1174.871094 138.769531 C 1174.808594 131.539062 1169.683594 125.285156 1162.546875 123.851562 L 875.289062 67.902344 C 873.367188 67.535156 871.320312 67.535156 869.371094 67.960938 L 800.734375 81.722656 L 863.359375 93.894531 C 884.683594 98.042969 900.210938 116.832031 900.332031 138.613281 Z M 1131.554688 348.527344 L 1143.144531 400.574219 L 1119.871094 400.574219 Z M 1131.554688 348.527344 "/>
<path style=" stroke:none;fill-rule:nonzero;fill:rgb(3.138733%,44.709778%,98.81897%);fill-opacity:1;" d="M 1024.851562 217.566406 L 1024.851562 212.898438 L 881.480469 242.0625 C 878.460938 242.703125 875.378906 242.976562 872.328125 242.976562 L 872.328125 266.316406 C 926.960938 266.316406 981.535156 260.578125 1024.851562 249.140625 Z M 1024.851562 217.566406 "/>
<g clip-path="url(#clip2)" clip-rule="nonzero">
<path style=" stroke:none;fill-rule:nonzero;fill:rgb(3.138733%,44.709778%,98.81897%);fill-opacity:1;" d="M 1238.378906 738.886719 L 1238.378906 736.140625 C 1238.378906 735.074219 1238.320312 734.066406 1238.074219 732.96875 C 1232.707031 648.4375 1160.5625 583.609375 1069.417969 583.609375 L 1069.234375 583.609375 L 948.773438 669.761719 C 956.703125 688.1875 961.890625 708.257812 963.382812 729.460938 C 963.6875 731.476562 963.871094 733.578125 963.933594 735.59375 C 964.328125 738.09375 964.542969 740.597656 964.542969 743.097656 C 964.542969 745.597656 964.328125 748.101562 963.933594 750.601562 L 963.933594 751.335938 C 963.933594 756.703125 962.804688 761.769531 961.125 766.589844 L 1223.21875 766.589844 C 1231.609375 766.589844 1238.472656 759.695312 1238.472656 751.335938 L 1238.472656 747.339844 C 1238.867188 745.964844 1239.082031 744.441406 1239.082031 742.945312 C 1239.050781 741.695312 1238.808594 740.199219 1238.378906 738.886719 Z M 1238.378906 738.886719 "/>
</g>
<path style=" stroke:none;fill-rule:nonzero;fill:rgb(3.138733%,44.709778%,98.81897%);fill-opacity:1;" d="M 1055.355469 400.601562 L 1055.355469 339.589844 C 1055.355469 325.617188 1055.355469 301.121094 1024.851562 295.171875 L 1024.851562 280.53125 C 981.929688 291.117188 930.773438 297.09375 877.699219 297.554688 L 901.796875 405.972656 C 904.816406 419.609375 901.519531 433.671875 892.828125 444.503906 C 884.042969 455.394531 871.015625 461.675781 857.136719 461.675781 L 795.824219 461.675781 C 782.554688 461.675781 770.382812 455.941406 761.691406 446.117188 C 754.703125 453.410156 746.132812 459.480469 736.921875 464.300781 C 740.335938 496.242188 748.878906 527.023438 762.175781 553.195312 L 764.097656 553.195312 C 826.113281 553.195312 880.808594 578.882812 917.261719 620.066406 C 974.730469 594.5625 1006.027344 520.492188 1009.355469 444.410156 C 1031.378906 439.011719 1055.355469 422.8125 1055.355469 400.601562 Z M 1055.355469 400.601562 "/>
<path style=" stroke:none;fill-rule:nonzero;fill:rgb(3.138733%,44.709778%,98.81897%);fill-opacity:1;" d="M 1026.34375 576.746094 L 1013.351562 558.871094 C 1004.898438 577.234375 994.40625 594.042969 981.839844 608.566406 Z M 1026.34375 576.746094 "/>
</g>
</svg>
