<?xml version="1.0" encoding="UTF-8"?>
<svg xmlns="http://www.w3.org/2000/svg" xmlns:xlink="http://www.w3.org/1999/xlink" width="52.5pt" height="52.499999pt" viewBox="0 0 52.5 52.499999" version="1.2">
<defs>
<clipPath id="clip1">
  <path d="M 0 0 L 52.003906 0 L 52.003906 52.003906 L 0 52.003906 Z M 0 0 "/>
</clipPath>
<clipPath id="clip2">
  <path d="M 7 14 L 52.003906 14 L 52.003906 52 L 7 52 Z M 7 14 "/>
</clipPath>
</defs>
<g id="surface1">
<g clip-path="url(#clip1)" clip-rule="nonzero">
<path style=" stroke:none;fill-rule:nonzero;fill:rgb(33.329773%,37.649536%,66.268921%);fill-opacity:1;" d="M 52.515625 26.261719 C 52.515625 37.957031 44.867188 47.867188 34.296875 51.257812 C 33.617188 51.480469 32.929688 51.671875 32.226562 51.835938 C 31.964844 51.894531 31.707031 51.949219 31.445312 52.003906 C 31.335938 52.023438 31.230469 52.042969 31.125 52.066406 C 29.546875 52.359375 27.921875 52.515625 26.261719 52.515625 C 11.761719 52.515625 0.0078125 40.761719 0.0078125 26.261719 C 0.0078125 11.761719 11.761719 0.0078125 26.261719 0.0078125 C 35.671875 0.0078125 43.925781 4.957031 48.558594 12.398438 C 49.238281 13.488281 49.839844 14.632812 50.355469 15.820312 C 50.597656 16.382812 50.824219 16.953125 51.027344 17.535156 C 51.441406 18.699219 51.769531 19.898438 52.011719 21.128906 C 52.34375 22.789062 52.515625 24.503906 52.515625 26.261719 Z M 52.515625 26.261719 "/>
</g>
<g clip-path="url(#clip2)" clip-rule="nonzero">
<path style=" stroke:none;fill-rule:nonzero;fill:rgb(23.529053%,24.708557%,49.409485%);fill-opacity:1;" d="M 52.515625 26.261719 C 52.515625 37.957031 44.867188 47.867188 34.296875 51.257812 C 33.617188 51.480469 32.929688 51.671875 32.226562 51.835938 L 7.402344 40.960938 L 41.0625 14.648438 L 52.011719 21.128906 C 52.34375 22.789062 52.515625 24.503906 52.515625 26.261719 Z M 52.515625 26.261719 "/>
</g>
<path style=" stroke:none;fill-rule:nonzero;fill:rgb(100%,100%,100%);fill-opacity:1;" d="M 7.402344 22.324219 L 45.195312 22.324219 L 45.195312 40.960938 L 7.402344 40.960938 Z M 7.402344 22.324219 "/>
<path style=" stroke:none;fill-rule:nonzero;fill:rgb(91.369629%,38.038635%,16.079712%);fill-opacity:1;" d="M 45.195312 22.324219 L 7.402344 22.324219 L 11.539062 14.648438 L 41.0625 14.648438 Z M 45.195312 22.324219 "/>
<path style=" stroke:none;fill-rule:nonzero;fill:rgb(89.408875%,21.179199%,14.898682%);fill-opacity:1;" d="M 6.15625 21.324219 L 46.363281 21.324219 L 46.363281 22.324219 L 6.15625 22.324219 Z M 6.15625 21.324219 "/>
<path style=" stroke:none;fill-rule:nonzero;fill:rgb(87.838745%,87.838745%,87.838745%);fill-opacity:1;" d="M 19.15625 22.324219 L 19.15625 40.960938 L 33.441406 40.960938 L 33.441406 22.324219 L 26.300781 14.648438 Z M 19.15625 22.324219 "/>
<path style=" stroke:none;fill-rule:nonzero;fill:rgb(91.369629%,38.038635%,16.079712%);fill-opacity:1;" d="M 26.300781 32.71875 C 24.644531 32.71875 23.304688 34.0625 23.304688 35.714844 L 23.304688 40.960938 L 29.296875 40.960938 L 29.296875 35.714844 C 29.296875 34.0625 27.953125 32.71875 26.300781 32.71875 Z M 26.300781 32.71875 "/>
<path style=" stroke:none;fill-rule:nonzero;fill:rgb(89.408875%,21.179199%,14.898682%);fill-opacity:1;" d="M 26.324219 32.71875 L 26.324219 40.960938 L 29.296875 40.960938 L 29.296875 35.714844 C 29.296875 34.070312 27.96875 32.734375 26.324219 32.71875 Z M 26.324219 32.71875 "/>
<path style=" stroke:none;fill-rule:nonzero;fill:rgb(91.369629%,38.038635%,16.079712%);fill-opacity:1;" d="M 29.367188 25.820312 C 29.367188 26.226562 29.289062 26.613281 29.136719 26.988281 C 28.980469 27.359375 28.761719 27.6875 28.476562 27.972656 C 28.191406 28.257812 27.859375 28.480469 27.488281 28.632812 C 27.113281 28.789062 26.726562 28.867188 26.324219 28.867188 C 25.917969 28.867188 25.53125 28.789062 25.15625 28.632812 C 24.785156 28.480469 24.457031 28.257812 24.171875 27.972656 C 23.886719 27.6875 23.664062 27.359375 23.511719 26.988281 C 23.355469 26.613281 23.277344 26.226562 23.277344 25.820312 C 23.277344 25.417969 23.355469 25.03125 23.511719 24.65625 C 23.664062 24.285156 23.886719 23.953125 24.171875 23.667969 C 24.457031 23.382812 24.785156 23.164062 25.15625 23.007812 C 25.53125 22.855469 25.917969 22.777344 26.324219 22.777344 C 26.726562 22.777344 27.113281 22.855469 27.488281 23.007812 C 27.859375 23.164062 28.191406 23.382812 28.476562 23.667969 C 28.761719 23.953125 28.980469 24.285156 29.136719 24.65625 C 29.289062 25.03125 29.367188 25.417969 29.367188 25.820312 Z M 29.367188 25.820312 "/>
<path style=" stroke:none;fill-rule:nonzero;fill:rgb(70.588684%,87.838745%,95.289612%);fill-opacity:1;" d="M 28.71875 25.820312 C 28.71875 26.140625 28.660156 26.445312 28.539062 26.738281 C 28.414062 27.03125 28.242188 27.292969 28.019531 27.515625 C 27.792969 27.742188 27.535156 27.914062 27.238281 28.035156 C 26.945312 28.15625 26.640625 28.21875 26.324219 28.21875 C 26.003906 28.21875 25.699219 28.15625 25.40625 28.035156 C 25.113281 27.914062 24.851562 27.742188 24.628906 27.515625 C 24.402344 27.292969 24.230469 27.03125 24.109375 26.738281 C 23.984375 26.445312 23.925781 26.140625 23.925781 25.820312 C 23.925781 25.503906 23.984375 25.199219 24.109375 24.902344 C 24.230469 24.609375 24.402344 24.351562 24.628906 24.125 C 24.851562 23.902344 25.113281 23.726562 25.40625 23.605469 C 25.699219 23.484375 26.003906 23.425781 26.324219 23.425781 C 26.640625 23.425781 26.945312 23.484375 27.238281 23.605469 C 27.535156 23.726562 27.792969 23.902344 28.019531 24.125 C 28.242188 24.351562 28.414062 24.609375 28.539062 24.902344 C 28.660156 25.199219 28.71875 25.503906 28.71875 25.820312 Z M 28.71875 25.820312 "/>
<path style=" stroke:none;fill-rule:nonzero;fill:rgb(100%,100%,100%);fill-opacity:1;" d="M 28.679688 26.273438 C 28.707031 26.128906 28.722656 25.976562 28.722656 25.820312 C 28.722656 24.496094 27.648438 23.425781 26.324219 23.425781 C 26.171875 23.425781 26.027344 23.4375 25.878906 23.464844 C 26.8125 24.402344 27.746094 25.339844 28.679688 26.273438 Z M 28.679688 26.273438 "/>
<path style=" stroke:none;fill-rule:nonzero;fill:rgb(100%,100%,100%);fill-opacity:1;" d="M 24.589844 24.167969 C 24.246094 24.527344 24.015625 24.992188 23.949219 25.511719 L 26.636719 28.199219 C 27.148438 28.132812 27.613281 27.902344 27.972656 27.5625 C 26.84375 26.429688 25.71875 25.296875 24.589844 24.167969 Z M 24.589844 24.167969 "/>
<path style=" stroke:none;fill-rule:nonzero;fill:rgb(91.369629%,38.038635%,16.079712%);fill-opacity:1;" d="M 9.089844 25.820312 L 12.339844 25.820312 L 12.339844 30.988281 L 9.089844 30.988281 Z M 9.089844 25.820312 "/>
<path style=" stroke:none;fill-rule:nonzero;fill:rgb(70.588684%,87.838745%,95.289612%);fill-opacity:1;" d="M 9.425781 26.09375 L 12 26.09375 L 12 30.71875 L 9.425781 30.71875 Z M 9.425781 26.09375 "/>
<path style=" stroke:none;fill-rule:nonzero;fill:rgb(100%,100%,100%);fill-opacity:1;" d="M 11.039062 26.09375 L 9.84375 26.09375 L 12 27.707031 L 12 26.8125 C 11.679688 26.570312 11.359375 26.332031 11.039062 26.09375 Z M 11.039062 26.09375 "/>
<path style=" stroke:none;fill-rule:nonzero;fill:rgb(100%,100%,100%);fill-opacity:1;" d="M 9.425781 27.269531 L 9.425781 28.527344 C 10.285156 29.167969 11.140625 29.8125 12 30.453125 L 12 29.195312 C 11.140625 28.554688 10.285156 27.910156 9.425781 27.269531 Z M 9.425781 27.269531 "/>
<path style=" stroke:none;fill-rule:nonzero;fill:rgb(91.369629%,38.038635%,16.079712%);fill-opacity:1;" d="M 14.125 25.820312 L 17.371094 25.820312 L 17.371094 30.988281 L 14.125 30.988281 Z M 14.125 25.820312 "/>
<path style=" stroke:none;fill-rule:nonzero;fill:rgb(70.588684%,87.838745%,95.289612%);fill-opacity:1;" d="M 14.460938 26.09375 L 17.03125 26.09375 L 17.03125 30.71875 L 14.460938 30.71875 Z M 14.460938 26.09375 "/>
<path style=" stroke:none;fill-rule:nonzero;fill:rgb(100%,100%,100%);fill-opacity:1;" d="M 16.074219 26.09375 L 14.878906 26.09375 L 17.03125 27.707031 L 17.03125 26.8125 C 16.710938 26.570312 16.390625 26.332031 16.074219 26.09375 Z M 16.074219 26.09375 "/>
<path style=" stroke:none;fill-rule:nonzero;fill:rgb(100%,100%,100%);fill-opacity:1;" d="M 14.460938 27.269531 L 14.460938 28.527344 C 15.316406 29.167969 16.175781 29.8125 17.03125 30.453125 L 17.03125 29.195312 C 16.175781 28.554688 15.316406 27.910156 14.460938 27.269531 Z M 14.460938 27.269531 "/>
<path style=" stroke:none;fill-rule:nonzero;fill:rgb(91.369629%,38.038635%,16.079712%);fill-opacity:1;" d="M 35.1875 25.820312 L 38.4375 25.820312 L 38.4375 30.988281 L 35.1875 30.988281 Z M 35.1875 25.820312 "/>
<path style=" stroke:none;fill-rule:nonzero;fill:rgb(70.588684%,87.838745%,95.289612%);fill-opacity:1;" d="M 35.527344 26.09375 L 38.097656 26.09375 L 38.097656 30.71875 L 35.527344 30.71875 Z M 35.527344 26.09375 "/>
<path style=" stroke:none;fill-rule:nonzero;fill:rgb(100%,100%,100%);fill-opacity:1;" d="M 37.140625 26.09375 L 35.945312 26.09375 L 38.097656 27.707031 L 38.097656 26.8125 C 37.777344 26.570312 37.460938 26.332031 37.140625 26.09375 Z M 37.140625 26.09375 "/>
<path style=" stroke:none;fill-rule:nonzero;fill:rgb(100%,100%,100%);fill-opacity:1;" d="M 35.527344 27.269531 L 35.527344 28.527344 C 36.382812 29.167969 37.242188 29.8125 38.097656 30.453125 L 38.097656 29.195312 C 37.242188 28.554688 36.382812 27.910156 35.527344 27.269531 Z M 35.527344 27.269531 "/>
<path style=" stroke:none;fill-rule:nonzero;fill:rgb(91.369629%,38.038635%,16.079712%);fill-opacity:1;" d="M 40.222656 25.820312 L 43.46875 25.820312 L 43.46875 30.988281 L 40.222656 30.988281 Z M 40.222656 25.820312 "/>
<path style=" stroke:none;fill-rule:nonzero;fill:rgb(70.588684%,87.838745%,95.289612%);fill-opacity:1;" d="M 40.5625 26.09375 L 43.132812 26.09375 L 43.132812 30.71875 L 40.5625 30.71875 Z M 40.5625 26.09375 "/>
<path style=" stroke:none;fill-rule:nonzero;fill:rgb(100%,100%,100%);fill-opacity:1;" d="M 42.171875 26.09375 L 40.980469 26.09375 L 43.132812 27.707031 L 43.132812 26.8125 C 42.8125 26.570312 42.492188 26.332031 42.171875 26.09375 Z M 42.171875 26.09375 "/>
<path style=" stroke:none;fill-rule:nonzero;fill:rgb(100%,100%,100%);fill-opacity:1;" d="M 40.5625 27.269531 L 40.5625 28.527344 C 41.417969 29.167969 42.273438 29.8125 43.132812 30.453125 L 43.132812 29.195312 C 42.273438 28.554688 41.417969 27.910156 40.5625 27.269531 Z M 40.5625 27.269531 "/>
<path style=" stroke:none;fill-rule:nonzero;fill:rgb(91.369629%,38.038635%,16.079712%);fill-opacity:1;" d="M 9.109375 32.378906 L 12.355469 32.378906 L 12.355469 37.542969 L 9.109375 37.542969 Z M 9.109375 32.378906 "/>
<path style=" stroke:none;fill-rule:nonzero;fill:rgb(70.588684%,87.838745%,95.289612%);fill-opacity:1;" d="M 9.445312 32.648438 L 12.019531 32.648438 L 12.019531 37.273438 L 9.445312 37.273438 Z M 9.445312 32.648438 "/>
<path style=" stroke:none;fill-rule:nonzero;fill:rgb(100%,100%,100%);fill-opacity:1;" d="M 11.058594 32.648438 L 9.863281 32.648438 L 12.019531 34.261719 L 12.019531 33.367188 C 11.699219 33.125 11.378906 32.886719 11.058594 32.648438 Z M 11.058594 32.648438 "/>
<path style=" stroke:none;fill-rule:nonzero;fill:rgb(100%,100%,100%);fill-opacity:1;" d="M 9.445312 33.824219 L 9.445312 35.085938 C 10.300781 35.726562 11.160156 36.367188 12.019531 37.007812 L 12.019531 35.753906 C 11.160156 35.109375 10.304688 34.46875 9.445312 33.824219 Z M 9.445312 33.824219 "/>
<path style=" stroke:none;fill-rule:nonzero;fill:rgb(91.369629%,38.038635%,16.079712%);fill-opacity:1;" d="M 14.144531 32.378906 L 17.390625 32.378906 L 17.390625 37.542969 L 14.144531 37.542969 Z M 14.144531 32.378906 "/>
<path style=" stroke:none;fill-rule:nonzero;fill:rgb(70.588684%,87.838745%,95.289612%);fill-opacity:1;" d="M 14.480469 32.648438 L 17.054688 32.648438 L 17.054688 37.273438 L 14.480469 37.273438 Z M 14.480469 32.648438 "/>
<path style=" stroke:none;fill-rule:nonzero;fill:rgb(100%,100%,100%);fill-opacity:1;" d="M 16.09375 32.648438 L 14.898438 32.648438 L 17.054688 34.261719 L 17.054688 33.367188 C 16.734375 33.125 16.414062 32.886719 16.09375 32.648438 Z M 16.09375 32.648438 "/>
<path style=" stroke:none;fill-rule:nonzero;fill:rgb(100%,100%,100%);fill-opacity:1;" d="M 14.480469 33.824219 L 14.480469 35.085938 C 15.339844 35.726562 16.195312 36.367188 17.054688 37.007812 L 17.054688 35.753906 C 16.195312 35.109375 15.339844 34.46875 14.480469 33.824219 Z M 14.480469 33.824219 "/>
<path style=" stroke:none;fill-rule:nonzero;fill:rgb(91.369629%,38.038635%,16.079712%);fill-opacity:1;" d="M 35.210938 32.378906 L 38.457031 32.378906 L 38.457031 37.542969 L 35.210938 37.542969 Z M 35.210938 32.378906 "/>
<path style=" stroke:none;fill-rule:nonzero;fill:rgb(70.588684%,87.838745%,95.289612%);fill-opacity:1;" d="M 35.546875 32.648438 L 38.117188 32.648438 L 38.117188 37.273438 L 35.546875 37.273438 Z M 35.546875 32.648438 "/>
<path style=" stroke:none;fill-rule:nonzero;fill:rgb(100%,100%,100%);fill-opacity:1;" d="M 37.15625 32.648438 L 35.964844 32.648438 L 38.117188 34.261719 L 38.117188 33.367188 C 37.796875 33.125 37.476562 32.886719 37.15625 32.648438 Z M 37.15625 32.648438 "/>
<path style=" stroke:none;fill-rule:nonzero;fill:rgb(100%,100%,100%);fill-opacity:1;" d="M 35.546875 33.824219 L 35.546875 35.085938 C 36.402344 35.726562 37.257812 36.367188 38.117188 37.007812 L 38.117188 35.753906 C 37.261719 35.109375 36.402344 34.46875 35.546875 33.824219 Z M 35.546875 33.824219 "/>
<path style=" stroke:none;fill-rule:nonzero;fill:rgb(91.369629%,38.038635%,16.079712%);fill-opacity:1;" d="M 40.242188 32.378906 L 43.492188 32.378906 L 43.492188 37.542969 L 40.242188 37.542969 Z M 40.242188 32.378906 "/>
<path style=" stroke:none;fill-rule:nonzero;fill:rgb(70.588684%,87.838745%,95.289612%);fill-opacity:1;" d="M 40.578125 32.648438 L 43.152344 32.648438 L 43.152344 37.273438 L 40.578125 37.273438 Z M 40.578125 32.648438 "/>
<path style=" stroke:none;fill-rule:nonzero;fill:rgb(100%,100%,100%);fill-opacity:1;" d="M 42.191406 32.648438 L 40.996094 32.648438 L 43.152344 34.261719 L 43.152344 33.367188 C 42.832031 33.125 42.511719 32.886719 42.191406 32.648438 Z M 42.191406 32.648438 "/>
<path style=" stroke:none;fill-rule:nonzero;fill:rgb(100%,100%,100%);fill-opacity:1;" d="M 40.578125 33.824219 L 40.578125 35.085938 C 41.4375 35.726562 42.292969 36.367188 43.152344 37.007812 L 43.152344 35.753906 C 42.296875 35.109375 41.4375 34.46875 40.578125 33.824219 Z M 40.578125 33.824219 "/>
<path style=" stroke:none;fill-rule:nonzero;fill:rgb(89.408875%,21.179199%,14.898682%);fill-opacity:1;" d="M 19.15625 22.324219 L 26.300781 14.648438 L 26.261719 13.125 L 17.925781 22.324219 Z M 19.15625 22.324219 "/>
<path style=" stroke:none;fill-rule:nonzero;fill:rgb(89.408875%,21.179199%,14.898682%);fill-opacity:1;" d="M 33.402344 22.324219 L 26.261719 14.648438 L 26.261719 13.125 L 34.636719 22.324219 Z M 33.402344 22.324219 "/>
<path style=" stroke:none;fill-rule:nonzero;fill:rgb(89.408875%,21.179199%,14.898682%);fill-opacity:1;" d="M 26.042969 11.132812 L 26.480469 11.132812 L 26.480469 14.410156 L 26.042969 14.410156 Z M 26.042969 11.132812 "/>
<path style=" stroke:none;fill-rule:nonzero;fill:rgb(91.369629%,38.038635%,16.079712%);fill-opacity:1;" d="M 29.601562 12.117188 L 26.042969 12.117188 L 26.042969 10.148438 L 29.601562 10.148438 L 28.722656 11.132812 Z M 29.601562 12.117188 "/>
</g>
</svg>
