<?xml version="1.0" encoding="UTF-8"?>
<svg xmlns="http://www.w3.org/2000/svg" xmlns:xlink="http://www.w3.org/1999/xlink" width="52.5pt" height="52.499999pt" viewBox="0 0 52.5 52.499999" version="1.2">
<defs>
<clipPath id="clip1">
  <path d="M 8 10 L 45 10 L 45 50.65625 L 8 50.65625 Z M 8 10 "/>
</clipPath>
<clipPath id="clip2">
  <path d="M 0.523438 1.90625 L 52.003906 1.90625 L 52.003906 28 L 0.523438 28 Z M 0.523438 1.90625 "/>
</clipPath>
</defs>
<g id="surface1">
<g clip-path="url(#clip1)" clip-rule="nonzero">
<path style=" stroke:none;fill-rule:nonzero;fill:rgb(61.569214%,61.569214%,61.569214%);fill-opacity:1;" d="M 44.566406 26.6875 Z M 44.566406 26.6875 L 26.40625 10.675781 L 8.230469 26.695312 L 8.230469 49.585938 C 8.230469 50.175781 8.710938 50.652344 9.304688 50.652344 L 20.664062 50.652344 L 20.664062 40.613281 C 20.664062 40.023438 21.140625 39.546875 21.734375 39.546875 L 31.066406 39.546875 C 31.660156 39.546875 32.136719 40.023438 32.136719 40.613281 L 32.136719 50.652344 L 43.496094 50.652344 C 44.089844 50.652344 44.566406 50.175781 44.566406 49.585938 Z M 8.230469 26.695312 Z M 8.230469 26.695312 "/>
</g>
<g clip-path="url(#clip2)" clip-rule="nonzero">
<path style=" stroke:none;fill-rule:nonzero;fill:rgb(61.569214%,61.569214%,61.569214%);fill-opacity:1;" d="M 26.300781 1.910156 L 0.523438 24.632812 L 3.238281 27.679688 L 26.40625 7.257812 L 49.566406 27.679688 L 52.273438 24.632812 L 26.507812 1.910156 L 26.40625 2.027344 Z M 26.300781 1.910156 "/>
</g>
<path style=" stroke:none;fill-rule:nonzero;fill:rgb(61.569214%,61.569214%,61.569214%);fill-opacity:1;" d="M 8.230469 5.183594 L 14.765625 5.183594 L 14.710938 9.035156 L 8.230469 14.859375 Z M 8.230469 5.183594 "/>
</g>
</svg>
