<?xml version="1.0" encoding="UTF-8"?>
<svg xmlns="http://www.w3.org/2000/svg" xmlns:xlink="http://www.w3.org/1999/xlink" width="1440pt" height="809.999993pt" viewBox="0 0 1440 809.999993" version="1.2">
<g id="surface1">
<path style=" stroke:none;fill-rule:nonzero;fill:rgb(77.648926%,77.648926%,77.648926%);fill-opacity:1;" d="M 720.316406 556.835938 C 782.816406 556.835938 833.957031 455.820312 833.957031 383.851562 C 833.957031 311.878906 782.816406 253.796875 720.316406 253.796875 C 657.8125 253.796875 606.675781 311.878906 606.675781 383.851562 C 606.675781 455.820312 657.8125 556.835938 720.316406 556.835938 Z M 720.316406 556.835938 "/>
<path style=" stroke:none;fill-rule:nonzero;fill:rgb(77.648926%,77.648926%,77.648926%);fill-opacity:1;" d="M 530.914062 228.542969 C 579.527344 228.542969 619.300781 152.78125 619.300781 99.121094 C 619.300781 44.824219 579.527344 1.261719 530.914062 1.261719 C 482.304688 1.261719 442.527344 44.824219 442.527344 99.121094 C 442.527344 152.78125 482.304688 228.542969 530.914062 228.542969 Z M 530.914062 228.542969 "/>
<path style=" stroke:none;fill-rule:nonzero;fill:rgb(77.648926%,77.648926%,77.648926%);fill-opacity:1;" d="M 909.714844 228.542969 C 958.328125 228.542969 998.101562 152.78125 998.101562 99.121094 C 998.101562 44.824219 958.328125 1.261719 909.714844 1.261719 C 861.101562 1.261719 821.328125 44.824219 821.328125 99.121094 C 821.328125 152.78125 861.101562 228.542969 909.714844 228.542969 Z M 909.714844 228.542969 "/>
<path style=" stroke:none;fill-rule:nonzero;fill:rgb(77.648926%,77.648926%,77.648926%);fill-opacity:1;" d="M 962.746094 639.539062 C 940.652344 619.335938 809.332031 582.089844 809.332031 582.089844 L 720.316406 645.222656 L 631.296875 582.089844 C 631.296875 582.089844 499.980469 619.335938 477.882812 639.539062 C 454.523438 661.003906 445.6875 732.347656 442.527344 775.277344 C 441.265625 793.585938 456.417969 808.738281 475.988281 808.738281 L 964.640625 808.738281 C 984.210938 808.738281 999.363281 793.585938 998.101562 775.277344 C 994.945312 732.347656 986.105469 661.003906 962.746094 639.539062 Z M 962.746094 639.539062 "/>
<path style=" stroke:none;fill-rule:nonzero;fill:rgb(77.648926%,77.648926%,77.648926%);fill-opacity:1;" d="M 581.421875 383.851562 C 581.421875 335.238281 601.625 292.308594 632.558594 263.265625 C 614.25 257.582031 599.730469 253.164062 599.730469 253.164062 L 530.914062 303.039062 L 462.101562 253.796875 C 462.101562 253.796875 360.457031 282.835938 343.410156 298.621094 C 325.734375 315.035156 318.789062 370.59375 316.261719 404.054688 C 315 418.574219 326.996094 430.570312 342.148438 430.570312 L 587.105469 430.570312 C 583.316406 414.15625 581.421875 398.371094 581.421875 383.851562 Z M 581.421875 383.851562 "/>
<path style=" stroke:none;fill-rule:nonzero;fill:rgb(77.648926%,77.648926%,77.648926%);fill-opacity:1;" d="M 978.53125 253.796875 L 909.714844 303.039062 L 840.898438 253.796875 C 840.898438 253.796875 827.011719 257.582031 808.070312 263.898438 C 839.007812 292.308594 859.207031 335.867188 859.207031 383.851562 C 859.207031 398.371094 857.316406 414.15625 853.527344 430.570312 L 1098.484375 430.570312 C 1113.636719 430.570312 1125 418.574219 1124.367188 404.054688 C 1121.84375 370.59375 1115.53125 315.035156 1097.222656 298.621094 C 1080.175781 282.835938 978.53125 253.796875 978.53125 253.796875 Z M 978.53125 253.796875 "/>
</g>
</svg>
