<?xml version="1.0" encoding="UTF-8"?>
<svg xmlns="http://www.w3.org/2000/svg" xmlns:xlink="http://www.w3.org/1999/xlink" width="1440pt" height="809.999993pt" viewBox="0 0 1440 809.999993" version="1.2">
<defs>
<clipPath id="clip1">
  <path d="M 283.34375 747 L 1156 747 L 1156 810 L 283.34375 810 Z M 283.34375 747 "/>
</clipPath>
<clipPath id="clip2">
  <path d="M 283.34375 218 L 409 218 L 409 717 L 283.34375 717 Z M 283.34375 218 "/>
</clipPath>
</defs>
<g id="surface1">
<path style=" stroke:none;fill-rule:nonzero;fill:rgb(3.138733%,44.709778%,98.81897%);fill-opacity:1;" d="M 906.699219 467.308594 L 782.128906 467.308594 L 782.128906 716.539062 L 906.699219 716.539062 L 906.699219 467.308594 "/>
<path style=" stroke:none;fill-rule:nonzero;fill:rgb(3.138733%,44.709778%,98.81897%);fill-opacity:1;" d="M 750.984375 0 L 595.269531 0 L 595.269531 93.460938 L 750.984375 93.460938 L 750.984375 0 "/>
<path style=" stroke:none;fill-rule:nonzero;fill:rgb(3.138733%,44.709778%,98.81897%);fill-opacity:1;" d="M 906.699219 327.117188 L 782.128906 327.117188 L 782.128906 436.152344 L 906.699219 436.152344 L 906.699219 327.117188 "/>
<path style=" stroke:none;fill-rule:nonzero;fill:rgb(3.138733%,44.709778%,98.81897%);fill-opacity:1;" d="M 750.984375 623.078125 L 595.269531 623.078125 L 595.269531 716.539062 L 750.984375 716.539062 L 750.984375 623.078125 "/>
<path style=" stroke:none;fill-rule:nonzero;fill:rgb(3.138733%,44.709778%,98.81897%);fill-opacity:1;" d="M 1137.960938 688.972656 L 1034.3125 96.625 L 924.582031 121.027344 L 1028.230469 713.375 L 1137.960938 688.972656 "/>
<path style=" stroke:none;fill-rule:nonzero;fill:rgb(3.138733%,44.709778%,98.81897%);fill-opacity:1;" d="M 906.699219 218.078125 L 782.128906 218.078125 L 782.128906 295.960938 L 906.699219 295.960938 L 906.699219 218.078125 "/>
<path style=" stroke:none;fill-rule:nonzero;fill:rgb(3.138733%,44.709778%,98.81897%);fill-opacity:1;" d="M 704.269531 186.921875 L 641.984375 186.921875 C 633.410156 186.921875 626.414062 179.925781 626.414062 171.347656 C 626.414062 162.765625 633.410156 155.769531 641.984375 155.769531 L 704.269531 155.769531 C 712.847656 155.769531 719.84375 162.765625 719.84375 171.347656 C 719.84375 179.925781 712.847656 186.921875 704.269531 186.921875 Z M 704.269531 560.769531 L 641.984375 560.769531 C 633.410156 560.769531 626.414062 553.773438 626.414062 545.191406 C 626.414062 536.613281 633.410156 529.617188 641.984375 529.617188 L 704.269531 529.617188 C 712.847656 529.617188 719.84375 536.613281 719.84375 545.191406 C 719.84375 553.773438 712.847656 560.769531 704.269531 560.769531 Z M 750.984375 124.617188 L 595.269531 124.617188 L 595.269531 591.921875 L 750.984375 591.921875 L 750.984375 124.617188 "/>
<g clip-path="url(#clip1)" clip-rule="nonzero">
<path style=" stroke:none;fill-rule:nonzero;fill:rgb(3.138733%,44.709778%,98.81897%);fill-opacity:1;" d="M 283.839844 747.691406 L 283.839844 810 L 1155.84375 810 L 1155.84375 747.691406 L 283.839844 747.691406 "/>
</g>
<g clip-path="url(#clip2)" clip-rule="nonzero">
<path style=" stroke:none;fill-rule:nonzero;fill:rgb(3.138733%,44.709778%,98.81897%);fill-opacity:1;" d="M 361.699219 514.039062 C 361.699219 522.617188 354.703125 529.617188 346.125 529.617188 C 337.550781 529.617188 330.554688 522.617188 330.554688 514.039062 L 330.554688 280.382812 C 330.554688 271.804688 337.550781 264.808594 346.125 264.808594 C 354.703125 264.808594 361.699219 271.804688 361.699219 280.382812 Z M 361.699219 607.5 C 361.699219 616.078125 354.703125 623.078125 346.125 623.078125 C 337.550781 623.078125 330.554688 616.078125 330.554688 607.5 L 330.554688 576.347656 C 330.554688 567.765625 337.550781 560.769531 346.125 560.769531 C 354.703125 560.769531 361.699219 567.765625 361.699219 576.347656 Z M 408.414062 218.078125 L 283.839844 218.078125 L 283.839844 716.539062 L 408.414062 716.539062 L 408.414062 218.078125 "/>
</g>
<path style=" stroke:none;fill-rule:nonzero;fill:rgb(3.138733%,44.709778%,98.81897%);fill-opacity:1;" d="M 564.128906 685.382812 L 439.554688 685.382812 L 439.554688 716.539062 L 564.128906 716.539062 L 564.128906 685.382812 "/>
<path style=" stroke:none;fill-rule:nonzero;fill:rgb(3.138733%,44.709778%,98.81897%);fill-opacity:1;" d="M 564.128906 109.039062 L 439.554688 109.039062 L 439.554688 591.921875 L 564.128906 591.921875 L 564.128906 109.039062 "/>
<path style=" stroke:none;fill-rule:nonzero;fill:rgb(3.138733%,44.709778%,98.81897%);fill-opacity:1;" d="M 564.128906 623.078125 L 439.554688 623.078125 L 439.554688 654.230469 L 564.128906 654.230469 L 564.128906 623.078125 "/>
</g>
</svg>
