<?xml version="1.0" encoding="UTF-8"?><svg xmlns="http://www.w3.org/2000/svg" xmlns:xlink="http://www.w3.org/1999/xlink" contentScriptType="text/ecmascript" width="1440pt" zoomAndPan="magnify" contentStyleType="text/css" viewBox="0 0 1440 809.999993" height="809.999993pt" preserveAspectRatio="xMidYMid meet" version="1.2"><defs><clipPath xml:id="clip1" id="clip1"><path d="M 627 149.378906 L 813 149.378906 L 813 335 L 627 335 Z M 627 149.378906 "/></clipPath><clipPath xml:id="clip2" id="clip2"><path d="M 479 321 L 961 321 L 961 660.878906 L 479 660.878906 Z M 479 321 "/></clipPath></defs><g xml:id="surface1" id="surface1"><path style=" stroke:none;fill-rule:nonzero;fill:rgb(65.489197%,90.589905%,100%);fill-opacity:1;" d="M 720 0 C 713.371094 0 706.746094 0.164062 700.128906 0.488281 C 693.507812 0.8125 686.898438 1.300781 680.304688 1.949219 C 673.707031 2.601562 667.128906 3.410156 660.574219 4.382812 C 654.019531 5.355469 647.488281 6.488281 640.988281 7.78125 C 634.488281 9.074219 628.023438 10.527344 621.59375 12.136719 C 615.164062 13.746094 608.777344 15.515625 602.433594 17.4375 C 596.09375 19.363281 589.800781 21.441406 583.558594 23.675781 C 577.320312 25.90625 571.136719 28.292969 565.011719 30.828125 C 558.890625 33.367188 552.832031 36.050781 546.839844 38.882812 C 540.847656 41.71875 534.929688 44.699219 529.085938 47.820312 C 523.238281 50.945312 517.472656 54.210938 511.789062 57.621094 C 506.101562 61.027344 500.503906 64.574219 494.992188 68.253906 C 489.484375 71.9375 484.066406 75.753906 478.742188 79.699219 C 473.417969 83.648438 468.195312 87.726562 463.070312 91.929688 C 457.945312 96.136719 452.929688 100.464844 448.019531 104.914062 C 443.109375 109.367188 438.308594 113.933594 433.621094 118.621094 C 428.933594 123.308594 424.367188 128.109375 419.914062 133.019531 C 415.464844 137.929688 411.136719 142.945312 406.929688 148.070312 C 402.726562 153.195312 398.648438 158.417969 394.699219 163.742188 C 390.753906 169.066406 386.9375 174.484375 383.253906 179.992188 C 379.574219 185.503906 376.027344 191.101562 372.621094 196.789062 C 369.210938 202.472656 365.945312 208.238281 362.820312 214.085938 C 359.699219 219.929688 356.71875 225.847656 353.882812 231.839844 C 351.050781 237.832031 348.367188 243.890625 345.828125 250.011719 C 343.292969 256.136719 340.90625 262.320312 338.675781 268.558594 C 336.441406 274.800781 334.363281 281.09375 332.4375 287.433594 C 330.515625 293.777344 328.746094 300.164062 327.136719 306.59375 C 325.527344 313.023438 324.074219 319.488281 322.78125 325.988281 C 321.488281 332.488281 320.355469 339.019531 319.382812 345.574219 C 318.410156 352.128906 317.601562 358.707031 316.949219 365.304688 C 316.300781 371.898438 315.8125 378.507812 315.488281 385.128906 C 315.164062 391.746094 315 398.371094 315 405 C 315 411.628906 315.164062 418.253906 315.488281 424.871094 C 315.8125 431.492188 316.300781 438.101562 316.949219 444.695312 C 317.601562 451.292969 318.410156 457.871094 319.382812 464.425781 C 320.355469 470.980469 321.488281 477.511719 322.78125 484.011719 C 324.074219 490.511719 325.527344 496.976562 327.136719 503.40625 C 328.746094 509.835938 330.515625 516.222656 332.4375 522.566406 C 334.363281 528.90625 336.441406 535.199219 338.675781 541.441406 C 340.90625 547.679688 343.292969 553.863281 345.828125 559.988281 C 348.367188 566.109375 351.050781 572.167969 353.882812 578.160156 C 356.71875 584.152344 359.699219 590.070312 362.820312 595.914062 C 365.945312 601.761719 369.210938 607.527344 372.621094 613.210938 C 376.027344 618.898438 379.574219 624.496094 383.253906 630.007812 C 386.9375 635.515625 390.753906 640.933594 394.699219 646.257812 C 398.648438 651.582031 402.726562 656.804688 406.929688 661.929688 C 411.136719 667.054688 415.464844 672.070312 419.914062 676.980469 C 424.367188 681.890625 428.933594 686.691406 433.621094 691.378906 C 438.308594 696.066406 443.109375 700.632812 448.019531 705.085938 C 452.929688 709.535156 457.945312 713.863281 463.070312 718.070312 C 468.195312 722.273438 473.417969 726.351562 478.742188 730.300781 C 484.066406 734.246094 489.484375 738.0625 494.992188 741.746094 C 500.503906 745.425781 506.101562 748.972656 511.789062 752.378906 C 517.472656 755.789062 523.238281 759.054688 529.085938 762.179688 C 534.929688 765.300781 540.847656 768.28125 546.839844 771.117188 C 552.832031 773.949219 558.890625 776.632812 565.011719 779.171875 C 571.136719 781.707031 577.320312 784.09375 583.558594 786.324219 C 589.800781 788.558594 596.09375 790.636719 602.433594 792.5625 C 608.777344 794.484375 615.164062 796.253906 621.59375 797.863281 C 628.023438 799.472656 634.488281 800.925781 640.988281 802.21875 C 647.488281 803.511719 654.019531 804.644531 660.574219 805.617188 C 667.128906 806.589844 673.707031 807.398438 680.304688 808.050781 C 686.898438 808.699219 693.507812 809.1875 700.128906 809.511719 C 706.746094 809.835938 713.371094 810 720 810 C 726.628906 810 733.253906 809.835938 739.871094 809.511719 C 746.492188 809.1875 753.101562 808.699219 759.695312 808.050781 C 766.292969 807.398438 772.871094 806.589844 779.425781 805.617188 C 785.980469 804.644531 792.511719 803.511719 799.011719 802.21875 C 805.511719 800.925781 811.976562 799.472656 818.40625 797.863281 C 824.835938 796.253906 831.222656 794.484375 837.566406 792.5625 C 843.90625 790.636719 850.199219 788.558594 856.441406 786.324219 C 862.679688 784.09375 868.863281 781.707031 874.988281 779.171875 C 881.109375 776.632812 887.167969 773.949219 893.160156 771.117188 C 899.152344 768.28125 905.070312 765.300781 910.914062 762.179688 C 916.761719 759.054688 922.527344 755.789062 928.210938 752.378906 C 933.898438 748.972656 939.496094 745.425781 945.007812 741.746094 C 950.515625 738.0625 955.933594 734.246094 961.257812 730.300781 C 966.582031 726.351562 971.804688 722.273438 976.929688 718.070312 C 982.054688 713.863281 987.070312 709.535156 991.980469 705.085938 C 996.890625 700.632812 1001.691406 696.066406 1006.378906 691.378906 C 1011.066406 686.691406 1015.632812 681.890625 1020.085938 676.980469 C 1024.535156 672.070312 1028.863281 667.054688 1033.070312 661.929688 C 1037.273438 656.804688 1041.351562 651.582031 1045.300781 646.257812 C 1049.246094 640.933594 1053.0625 635.515625 1056.746094 630.007812 C 1060.425781 624.496094 1063.972656 618.898438 1067.378906 613.210938 C 1070.789062 607.527344 1074.054688 601.761719 1077.179688 595.914062 C 1080.300781 590.070312 1083.28125 584.152344 1086.117188 578.160156 C 1088.949219 572.167969 1091.632812 566.109375 1094.171875 559.988281 C 1096.707031 553.863281 1099.09375 547.679688 1101.324219 541.441406 C 1103.558594 535.199219 1105.636719 528.90625 1107.5625 522.566406 C 1109.484375 516.222656 1111.253906 509.835938 1112.863281 503.40625 C 1114.472656 496.976562 1115.925781 490.511719 1117.21875 484.011719 C 1118.511719 477.511719 1119.644531 470.980469 1120.617188 464.425781 C 1121.589844 457.871094 1122.398438 451.292969 1123.050781 444.695312 C 1123.699219 438.101562 1124.1875 431.492188 1124.511719 424.871094 C 1124.835938 418.253906 1125 411.628906 1125 405 C 1125 398.371094 1124.835938 391.746094 1124.511719 385.128906 C 1124.1875 378.507812 1123.699219 371.898438 1123.050781 365.304688 C 1122.398438 358.707031 1121.589844 352.128906 1120.617188 345.574219 C 1119.644531 339.019531 1118.511719 332.488281 1117.21875 325.988281 C 1115.925781 319.488281 1114.472656 313.023438 1112.863281 306.59375 C 1111.253906 300.164062 1109.484375 293.777344 1107.5625 287.433594 C 1105.636719 281.09375 1103.558594 274.800781 1101.324219 268.558594 C 1099.09375 262.320312 1096.707031 256.136719 1094.171875 250.011719 C 1091.632812 243.890625 1088.949219 237.832031 1086.117188 231.839844 C 1083.28125 225.847656 1080.300781 219.929688 1077.179688 214.085938 C 1074.054688 208.238281 1070.789062 202.472656 1067.378906 196.789062 C 1063.972656 191.101562 1060.425781 185.503906 1056.746094 179.992188 C 1053.0625 174.484375 1049.246094 169.066406 1045.300781 163.742188 C 1041.351562 158.417969 1037.273438 153.195312 1033.070312 148.070312 C 1028.863281 142.945312 1024.535156 137.929688 1020.085938 133.019531 C 1015.632812 128.109375 1011.066406 123.308594 1006.378906 118.621094 C 1001.691406 113.933594 996.890625 109.367188 991.980469 104.914062 C 987.070312 100.464844 982.054688 96.136719 976.929688 91.929688 C 971.804688 87.726562 966.582031 83.648438 961.257812 79.699219 C 955.933594 75.753906 950.515625 71.9375 945.007812 68.253906 C 939.496094 64.574219 933.898438 61.027344 928.210938 57.621094 C 922.527344 54.210938 916.761719 50.945312 910.914062 47.820312 C 905.070312 44.699219 899.152344 41.71875 893.160156 38.882812 C 887.167969 36.050781 881.109375 33.367188 874.988281 30.828125 C 868.863281 28.292969 862.679688 25.90625 856.441406 23.675781 C 850.199219 21.441406 843.90625 19.363281 837.566406 17.4375 C 831.222656 15.515625 824.835938 13.746094 818.40625 12.136719 C 811.976562 10.527344 805.511719 9.074219 799.011719 7.78125 C 792.511719 6.488281 785.980469 5.355469 779.425781 4.382812 C 772.871094 3.410156 766.292969 2.601562 759.695312 1.949219 C 753.101562 1.300781 746.492188 0.8125 739.871094 0.488281 C 733.253906 0.164062 726.628906 0 720 0 Z M 720 0 "/><g clip-rule="nonzero" clip-path="url(#clip1)"><path style=" stroke:none;fill-rule:nonzero;fill:rgb(3.138733%,44.709778%,98.81897%);fill-opacity:1;" d="M 812.363281 241.796875 C 812.363281 243.308594 812.324219 244.820312 812.25 246.332031 C 812.175781 247.839844 812.066406 249.347656 811.917969 250.855469 C 811.769531 252.359375 811.582031 253.859375 811.363281 255.355469 C 811.140625 256.851562 810.882812 258.34375 810.585938 259.824219 C 810.292969 261.308594 809.960938 262.785156 809.59375 264.25 C 809.226562 265.71875 808.824219 267.175781 808.382812 268.621094 C 807.945312 270.070312 807.472656 271.507812 806.960938 272.929688 C 806.453125 274.355469 805.910156 275.765625 805.332031 277.160156 C 804.753906 278.558594 804.140625 279.941406 803.492188 281.308594 C 802.847656 282.675781 802.167969 284.027344 801.457031 285.359375 C 800.742188 286.695312 799.996094 288.011719 799.21875 289.308594 C 798.445312 290.605469 797.636719 291.882812 796.796875 293.140625 C 795.957031 294.398438 795.085938 295.632812 794.183594 296.847656 C 793.285156 298.0625 792.355469 299.253906 791.394531 300.425781 C 790.4375 301.59375 789.449219 302.738281 788.433594 303.859375 C 787.417969 304.980469 786.378906 306.074219 785.308594 307.144531 C 784.238281 308.214844 783.144531 309.253906 782.023438 310.269531 C 780.90625 311.289062 779.761719 312.273438 778.59375 313.234375 C 777.421875 314.195312 776.230469 315.125 775.019531 316.023438 C 773.804688 316.925781 772.566406 317.796875 771.3125 318.636719 C 770.054688 319.476562 768.777344 320.285156 767.480469 321.0625 C 766.183594 321.839844 764.871094 322.585938 763.535156 323.300781 C 762.203125 324.011719 760.851562 324.691406 759.488281 325.339844 C 758.121094 325.984375 756.738281 326.597656 755.34375 327.175781 C 753.945312 327.753906 752.535156 328.300781 751.113281 328.808594 C 749.6875 329.320312 748.253906 329.792969 746.808594 330.230469 C 745.359375 330.671875 743.90625 331.074219 742.4375 331.441406 C 740.972656 331.808594 739.496094 332.140625 738.015625 332.4375 C 736.53125 332.730469 735.042969 332.988281 733.546875 333.210938 C 732.054688 333.433594 730.554688 333.617188 729.046875 333.765625 C 727.542969 333.914062 726.035156 334.027344 724.527344 334.101562 C 723.015625 334.175781 721.507812 334.210938 719.996094 334.210938 C 718.484375 334.210938 716.972656 334.175781 715.460938 334.101562 C 713.953125 334.027344 712.445312 333.914062 710.941406 333.765625 C 709.4375 333.617188 707.9375 333.433594 706.441406 333.210938 C 704.945312 332.988281 703.457031 332.730469 701.976562 332.4375 C 700.492188 332.140625 699.019531 331.808594 697.550781 331.441406 C 696.085938 331.074219 694.628906 330.671875 693.183594 330.230469 C 691.734375 329.792969 690.300781 329.320312 688.878906 328.808594 C 687.453125 328.300781 686.042969 327.753906 684.648438 327.175781 C 683.25 326.597656 681.871094 325.984375 680.503906 325.339844 C 679.136719 324.691406 677.785156 324.011719 676.453125 323.300781 C 675.121094 322.585938 673.804688 321.839844 672.507812 321.0625 C 671.210938 320.285156 669.9375 319.476562 668.679688 318.636719 C 667.421875 317.796875 666.1875 316.925781 664.972656 316.023438 C 663.757812 315.125 662.566406 314.195312 661.398438 313.234375 C 660.230469 312.273438 659.085938 311.289062 657.964844 310.269531 C 656.84375 309.253906 655.75 308.214844 654.683594 307.144531 C 653.613281 306.074219 652.570312 304.980469 651.554688 303.859375 C 650.539062 302.738281 649.554688 301.59375 648.59375 300.425781 C 647.636719 299.253906 646.707031 298.0625 645.804688 296.847656 C 644.90625 295.632812 644.035156 294.398438 643.195312 293.140625 C 642.355469 291.882812 641.546875 290.605469 640.769531 289.308594 C 639.992188 288.011719 639.246094 286.695312 638.535156 285.359375 C 637.820312 284.027344 637.144531 282.675781 636.496094 281.308594 C 635.851562 279.941406 635.238281 278.558594 634.660156 277.160156 C 634.082031 275.765625 633.535156 274.355469 633.027344 272.929688 C 632.519531 271.507812 632.042969 270.070312 631.605469 268.621094 C 631.167969 267.175781 630.761719 265.71875 630.394531 264.25 C 630.027344 262.785156 629.699219 261.308594 629.402344 259.824219 C 629.109375 258.34375 628.851562 256.851562 628.628906 255.355469 C 628.40625 253.859375 628.222656 252.359375 628.074219 250.855469 C 627.925781 249.347656 627.8125 247.839844 627.738281 246.332031 C 627.664062 244.820312 627.628906 243.308594 627.628906 241.796875 C 627.628906 240.285156 627.664062 238.773438 627.738281 237.261719 C 627.8125 235.75 627.925781 234.242188 628.074219 232.738281 C 628.222656 231.234375 628.40625 229.730469 628.628906 228.234375 C 628.851562 226.738281 629.109375 225.25 629.402344 223.765625 C 629.699219 222.285156 630.027344 220.808594 630.394531 219.339844 C 630.761719 217.875 631.167969 216.417969 631.605469 214.96875 C 632.042969 213.523438 632.519531 212.085938 633.027344 210.664062 C 633.535156 209.238281 634.082031 207.828125 634.660156 206.429688 C 635.238281 205.03125 635.851562 203.652344 636.496094 202.285156 C 637.144531 200.917969 637.820312 199.566406 638.535156 198.230469 C 639.246094 196.898438 639.992188 195.582031 640.769531 194.285156 C 641.546875 192.988281 642.355469 191.710938 643.195312 190.453125 C 644.035156 189.195312 644.90625 187.960938 645.804688 186.746094 C 646.707031 185.53125 647.636719 184.335938 648.59375 183.167969 C 649.554688 182 650.539062 180.855469 651.554688 179.734375 C 652.570312 178.613281 653.613281 177.519531 654.683594 176.449219 C 655.75 175.378906 656.84375 174.335938 657.964844 173.320312 C 659.085938 172.304688 660.230469 171.316406 661.398438 170.359375 C 662.566406 169.398438 663.757812 168.46875 664.972656 167.566406 C 666.1875 166.667969 667.421875 165.796875 668.679688 164.957031 C 669.9375 164.113281 671.210938 163.304688 672.507812 162.527344 C 673.804688 161.75 675.121094 161.003906 676.453125 160.292969 C 677.785156 159.578125 679.136719 158.898438 680.503906 158.253906 C 681.871094 157.605469 683.25 156.992188 684.648438 156.414062 C 686.042969 155.835938 687.453125 155.292969 688.878906 154.78125 C 690.300781 154.273438 691.734375 153.800781 693.183594 153.359375 C 694.628906 152.921875 696.085938 152.519531 697.550781 152.148438 C 699.019531 151.78125 700.492188 151.453125 701.976562 151.15625 C 703.457031 150.859375 704.945312 150.601562 706.441406 150.378906 C 707.9375 150.160156 709.4375 149.972656 710.941406 149.824219 C 712.445312 149.675781 713.953125 149.566406 715.460938 149.492188 C 716.972656 149.417969 718.484375 149.378906 719.996094 149.378906 C 721.507812 149.378906 723.015625 149.417969 724.527344 149.492188 C 726.035156 149.566406 727.542969 149.675781 729.046875 149.824219 C 730.554688 149.972656 732.054688 150.160156 733.546875 150.378906 C 735.042969 150.601562 736.53125 150.859375 738.015625 151.15625 C 739.496094 151.453125 740.972656 151.78125 742.4375 152.148438 C 743.90625 152.519531 745.359375 152.921875 746.808594 153.359375 C 748.253906 153.800781 749.6875 154.273438 751.113281 154.78125 C 752.535156 155.292969 753.945312 155.835938 755.34375 156.414062 C 756.738281 156.992188 758.121094 157.605469 759.488281 158.253906 C 760.851562 158.898438 762.203125 159.578125 763.535156 160.292969 C 764.871094 161.003906 766.183594 161.75 767.480469 162.527344 C 768.777344 163.304688 770.054688 164.113281 771.3125 164.957031 C 772.566406 165.796875 773.804688 166.667969 775.019531 167.566406 C 776.230469 168.46875 777.421875 169.398438 778.59375 170.359375 C 779.761719 171.316406 780.90625 172.304688 782.023438 173.320312 C 783.144531 174.335938 784.238281 175.378906 785.308594 176.449219 C 786.378906 177.519531 787.417969 178.613281 788.433594 179.734375 C 789.449219 180.855469 790.4375 182 791.394531 183.167969 C 792.355469 184.335938 793.285156 185.53125 794.183594 186.746094 C 795.085938 187.960938 795.957031 189.195312 796.796875 190.453125 C 797.636719 191.710938 798.445312 192.988281 799.21875 194.285156 C 799.996094 195.582031 800.742188 196.898438 801.457031 198.230469 C 802.167969 199.566406 802.847656 200.917969 803.492188 202.285156 C 804.140625 203.652344 804.753906 205.03125 805.332031 206.429688 C 805.910156 207.828125 806.453125 209.238281 806.960938 210.664062 C 807.472656 212.085938 807.945312 213.523438 808.382812 214.96875 C 808.824219 216.417969 809.226562 217.875 809.59375 219.339844 C 809.960938 220.808594 810.292969 222.285156 810.585938 223.765625 C 810.882812 225.25 811.140625 226.738281 811.363281 228.234375 C 811.582031 229.730469 811.769531 231.234375 811.917969 232.738281 C 812.066406 234.242188 812.175781 235.75 812.25 237.261719 C 812.324219 238.773438 812.363281 240.285156 812.363281 241.796875 Z M 812.363281 241.796875 "/></g><g clip-rule="nonzero" clip-path="url(#clip2)"><path style=" stroke:none;fill-rule:nonzero;fill:rgb(3.138733%,44.709778%,98.81897%);fill-opacity:1;" d="M 940.871094 579.445312 L 940.871094 512.140625 C 952.707031 507.074219 960.953125 495.84375 960.953125 482.773438 L 960.953125 458.878906 C 960.953125 445.808594 952.707031 434.578125 940.871094 429.511719 L 940.871094 370.375 C 940.871094 363.3125 936.53125 358.832031 930.542969 358.832031 C 929.035156 358.832031 927.421875 359.117188 925.746094 359.71875 L 875.222656 377.820312 C 854.273438 351.601562 826.289062 331.859375 793.214844 321.730469 C 773.910156 339.449219 748.195312 350.285156 719.996094 350.285156 C 691.808594 350.285156 666.105469 339.460938 646.800781 321.757812 C 612.320312 332.3125 583.347656 353.277344 562.136719 381.167969 L 514.34375 365.101562 C 512.746094 364.566406 511.203125 364.308594 509.753906 364.308594 C 503.605469 364.308594 499.117188 368.902344 499.117188 376.054688 L 499.117188 429.511719 C 487.285156 434.578125 479.039062 445.808594 479.039062 458.878906 L 479.039062 482.773438 C 479.039062 495.84375 487.285156 507.074219 499.117188 512.140625 L 499.117188 576.601562 C 499.117188 585.441406 505.996094 594.898438 514.402344 597.613281 L 703.539062 658.753906 C 707.871094 660.152344 713.632812 660.859375 719.359375 660.859375 C 724.742188 660.859375 730.089844 660.234375 734.183594 658.980469 L 925.515625 600.230469 C 933.960938 597.636719 940.871094 588.285156 940.871094 579.445312 Z M 711.964844 644.222656 C 710.53125 643.992188 709.304688 643.726562 708.476562 643.460938 L 519.339844 582.320312 C 517.550781 581.742188 515.179688 578.480469 515.179688 576.601562 L 515.179688 514.929688 C 533.097656 513.941406 547.308594 499.945312 547.308594 482.773438 L 547.308594 458.878906 C 547.308594 441.707031 533.097656 427.710938 515.179688 426.722656 L 515.179688 382.339844 L 698.484375 443.960938 C 703.03125 445.488281 707.785156 446.230469 711.964844 446.570312 Z M 924.808594 426.722656 C 906.898438 427.710938 892.679688 441.707031 892.679688 458.878906 L 892.679688 482.773438 C 892.679688 499.945312 906.898438 513.941406 924.808594 514.929688 L 924.808594 579.445312 C 924.808594 581.207031 922.488281 584.351562 920.800781 584.867188 L 729.472656 643.613281 C 729.046875 643.746094 728.53125 643.851562 728.027344 643.964844 L 728.027344 446.148438 C 732.15625 445.597656 736.039062 444.75 739.363281 443.558594 L 924.808594 377.128906 Z M 924.808594 426.722656 "/></g></g></svg>