<?xml version="1.0" encoding="UTF-8"?>
<svg xmlns="http://www.w3.org/2000/svg" xmlns:xlink="http://www.w3.org/1999/xlink" width="52.5pt" height="52.499999pt" viewBox="0 0 52.5 52.499999" version="1.2">
<defs>
<clipPath id="clip1">
  <path d="M 0 0 L 52.003906 0 L 52.003906 52.003906 L 0 52.003906 Z M 0 0 "/>
</clipPath>
<clipPath id="clip2">
  <path d="M 13 8 L 52.003906 8 L 52.003906 52.003906 L 13 52.003906 Z M 13 8 "/>
</clipPath>
</defs>
<g id="surface1">
<g clip-path="url(#clip1)" clip-rule="nonzero">
<path style=" stroke:none;fill-rule:nonzero;fill:rgb(77.648926%,77.648926%,77.648926%);fill-opacity:1;" d="M 52.515625 26.261719 C 52.515625 39.097656 43.300781 49.785156 31.125 52.066406 C 29.546875 52.359375 27.921875 52.515625 26.261719 52.515625 C 11.761719 52.515625 0.0078125 40.761719 0.0078125 26.261719 C 0.0078125 11.761719 11.761719 0.0078125 26.261719 0.0078125 C 37.050781 0.0078125 46.320312 6.515625 50.355469 15.820312 C 51.746094 19.019531 52.515625 22.550781 52.515625 26.261719 Z M 52.515625 26.261719 "/>
</g>
<g clip-path="url(#clip2)" clip-rule="nonzero">
<path style=" stroke:none;fill-rule:nonzero;fill:rgb(61.569214%,61.569214%,61.569214%);fill-opacity:1;" d="M 52.515625 26.261719 C 52.515625 39.097656 43.300781 49.785156 31.125 52.066406 L 13.023438 44.183594 L 34.515625 8.335938 L 50.355469 15.820312 C 51.746094 19.019531 52.515625 22.550781 52.515625 26.261719 Z M 52.515625 26.261719 "/>
</g>
<path style=" stroke:none;fill-rule:nonzero;fill:rgb(100%,100%,100%);fill-opacity:1;" d="M 39.496094 44.183594 L 13.023438 44.183594 C 12.4375 44.183594 11.964844 43.710938 11.964844 43.121094 L 11.964844 9.398438 C 11.964844 8.8125 12.4375 8.335938 13.023438 8.335938 L 34.515625 8.335938 L 40.558594 15.699219 L 40.558594 43.121094 C 40.558594 43.710938 40.082031 44.183594 39.496094 44.183594 Z M 39.496094 44.183594 "/>
<path style=" stroke:none;fill-rule:nonzero;fill:rgb(50.588989%,80.778503%,92.158508%);fill-opacity:1;" d="M 34.515625 8.335938 L 34.515625 15.699219 L 40.558594 15.699219 Z M 34.515625 8.335938 "/>
<path style=" stroke:none;fill-rule:nonzero;fill:rgb(50.588989%,80.778503%,92.158508%);fill-opacity:1;" d="M 15.316406 22.976562 L 37.207031 22.976562 L 37.207031 24.953125 L 15.316406 24.953125 Z M 15.316406 22.976562 "/>
<path style=" stroke:none;fill-rule:nonzero;fill:rgb(50.588989%,80.778503%,92.158508%);fill-opacity:1;" d="M 23.085938 18.335938 L 37.207031 18.335938 L 37.207031 20.3125 L 23.085938 20.3125 Z M 23.085938 18.335938 "/>
<path style=" stroke:none;fill-rule:nonzero;fill:rgb(50.588989%,80.778503%,92.158508%);fill-opacity:1;" d="M 15.316406 27.371094 L 37.207031 27.371094 L 37.207031 29.351562 L 15.316406 29.351562 Z M 15.316406 27.371094 "/>
<path style=" stroke:none;fill-rule:nonzero;fill:rgb(50.588989%,80.778503%,92.158508%);fill-opacity:1;" d="M 15.316406 31.769531 L 37.207031 31.769531 L 37.207031 33.746094 L 15.316406 33.746094 Z M 15.316406 31.769531 "/>
<path style=" stroke:none;fill-rule:nonzero;fill:rgb(50.588989%,80.778503%,92.158508%);fill-opacity:1;" d="M 15.316406 36.160156 L 37.207031 36.160156 L 37.207031 38.140625 L 15.316406 38.140625 Z M 15.316406 36.160156 "/>
<path style=" stroke:none;fill-rule:nonzero;fill:rgb(91.369629%,38.038635%,16.079712%);fill-opacity:1;" d="M 15.972656 19.160156 L 17.496094 14.949219 L 18.980469 19.160156 L 20.027344 19.160156 L 17.96875 13.308594 C 17.898438 13.113281 17.710938 12.976562 17.503906 12.976562 L 17.5 12.976562 C 17.292969 12.976562 17.105469 13.109375 17.035156 13.304688 L 14.921875 19.15625 C 14.921875 19.15625 14.921875 19.15625 14.921875 19.160156 Z M 15.972656 19.160156 "/>
<path style=" stroke:none;fill-rule:nonzero;fill:rgb(91.369629%,38.038635%,16.079712%);fill-opacity:1;" d="M 18.832031 17.886719 L 16.089844 17.886719 C 15.8125 17.886719 15.59375 17.664062 15.59375 17.390625 C 15.59375 17.117188 15.816406 16.894531 16.089844 16.894531 L 18.832031 16.894531 C 19.105469 16.894531 19.328125 17.117188 19.328125 17.390625 C 19.328125 17.664062 19.105469 17.886719 18.832031 17.886719 Z M 18.832031 17.886719 "/>
<path style=" stroke:none;fill-rule:nonzero;fill:rgb(91.369629%,38.038635%,16.079712%);fill-opacity:1;" d="M 20.242188 13.472656 L 21.234375 13.472656 L 21.234375 16.109375 L 20.242188 16.109375 Z M 20.242188 13.472656 "/>
<path style=" stroke:none;fill-rule:nonzero;fill:rgb(91.369629%,38.038635%,16.079712%);fill-opacity:1;" d="M 19.421875 14.296875 L 22.058594 14.296875 L 22.058594 15.289062 L 19.421875 15.289062 Z M 19.421875 14.296875 "/>
</g>
</svg>
