<?xml version="1.0" encoding="UTF-8"?><svg xmlns="http://www.w3.org/2000/svg" xmlns:xlink="http://www.w3.org/1999/xlink" contentScriptType="text/ecmascript" width="1440pt" zoomAndPan="magnify" contentStyleType="text/css" viewBox="0 0 1440 809.999993" height="809.999993pt" preserveAspectRatio="xMidYMid meet" version="1.2"><defs><clipPath xml:id="clip1" id="clip1"><path d="M 479.152344 181.3125 L 960.652344 181.3125 L 960.652344 628.3125 L 479.152344 628.3125 Z M 479.152344 181.3125 "/></clipPath></defs><g xml:id="surface1" id="surface1"><path style=" stroke:none;fill-rule:nonzero;fill:rgb(65.489197%,90.589905%,100%);fill-opacity:1;" d="M 720 0 C 713.371094 0 706.746094 0.164062 700.128906 0.488281 C 693.507812 0.8125 686.898438 1.300781 680.304688 1.949219 C 673.707031 2.601562 667.128906 3.410156 660.574219 4.382812 C 654.019531 5.355469 647.488281 6.488281 640.988281 7.78125 C 634.488281 9.074219 628.023438 10.527344 621.59375 12.136719 C 615.164062 13.746094 608.777344 15.515625 602.433594 17.4375 C 596.09375 19.363281 589.800781 21.441406 583.558594 23.675781 C 577.320312 25.90625 571.136719 28.292969 565.011719 30.828125 C 558.890625 33.367188 552.832031 36.050781 546.839844 38.882812 C 540.847656 41.71875 534.929688 44.699219 529.085938 47.820312 C 523.238281 50.945312 517.472656 54.210938 511.789062 57.621094 C 506.101562 61.027344 500.503906 64.574219 494.992188 68.253906 C 489.484375 71.9375 484.066406 75.753906 478.742188 79.699219 C 473.417969 83.648438 468.195312 87.726562 463.070312 91.929688 C 457.945312 96.136719 452.929688 100.464844 448.019531 104.914062 C 443.109375 109.367188 438.308594 113.933594 433.621094 118.621094 C 428.933594 123.308594 424.367188 128.109375 419.914062 133.019531 C 415.464844 137.929688 411.136719 142.945312 406.929688 148.070312 C 402.726562 153.195312 398.648438 158.417969 394.699219 163.742188 C 390.753906 169.066406 386.9375 174.484375 383.253906 179.992188 C 379.574219 185.503906 376.027344 191.101562 372.621094 196.789062 C 369.210938 202.472656 365.945312 208.238281 362.820312 214.085938 C 359.699219 219.929688 356.71875 225.847656 353.882812 231.839844 C 351.050781 237.832031 348.367188 243.890625 345.828125 250.011719 C 343.292969 256.136719 340.90625 262.320312 338.675781 268.558594 C 336.441406 274.800781 334.363281 281.09375 332.4375 287.433594 C 330.515625 293.777344 328.746094 300.164062 327.136719 306.59375 C 325.527344 313.023438 324.074219 319.488281 322.78125 325.988281 C 321.488281 332.488281 320.355469 339.019531 319.382812 345.574219 C 318.410156 352.128906 317.601562 358.707031 316.949219 365.304688 C 316.300781 371.898438 315.8125 378.507812 315.488281 385.128906 C 315.164062 391.746094 315 398.371094 315 405 C 315 411.628906 315.164062 418.253906 315.488281 424.871094 C 315.8125 431.492188 316.300781 438.101562 316.949219 444.695312 C 317.601562 451.292969 318.410156 457.871094 319.382812 464.425781 C 320.355469 470.980469 321.488281 477.511719 322.78125 484.011719 C 324.074219 490.511719 325.527344 496.976562 327.136719 503.40625 C 328.746094 509.835938 330.515625 516.222656 332.4375 522.566406 C 334.363281 528.90625 336.441406 535.199219 338.675781 541.441406 C 340.90625 547.679688 343.292969 553.863281 345.828125 559.988281 C 348.367188 566.109375 351.050781 572.167969 353.882812 578.160156 C 356.71875 584.152344 359.699219 590.070312 362.820312 595.914062 C 365.945312 601.761719 369.210938 607.527344 372.621094 613.210938 C 376.027344 618.898438 379.574219 624.496094 383.253906 630.007812 C 386.9375 635.515625 390.753906 640.933594 394.699219 646.257812 C 398.648438 651.582031 402.726562 656.804688 406.929688 661.929688 C 411.136719 667.054688 415.464844 672.070312 419.914062 676.980469 C 424.367188 681.890625 428.933594 686.691406 433.621094 691.378906 C 438.308594 696.066406 443.109375 700.632812 448.019531 705.085938 C 452.929688 709.535156 457.945312 713.863281 463.070312 718.070312 C 468.195312 722.273438 473.417969 726.351562 478.742188 730.300781 C 484.066406 734.246094 489.484375 738.0625 494.992188 741.746094 C 500.503906 745.425781 506.101562 748.972656 511.789062 752.378906 C 517.472656 755.789062 523.238281 759.054688 529.085938 762.179688 C 534.929688 765.300781 540.847656 768.28125 546.839844 771.117188 C 552.832031 773.949219 558.890625 776.632812 565.011719 779.171875 C 571.136719 781.707031 577.320312 784.09375 583.558594 786.324219 C 589.800781 788.558594 596.09375 790.636719 602.433594 792.5625 C 608.777344 794.484375 615.164062 796.253906 621.59375 797.863281 C 628.023438 799.472656 634.488281 800.925781 640.988281 802.21875 C 647.488281 803.511719 654.019531 804.644531 660.574219 805.617188 C 667.128906 806.589844 673.707031 807.398438 680.304688 808.050781 C 686.898438 808.699219 693.507812 809.1875 700.128906 809.511719 C 706.746094 809.835938 713.371094 810 720 810 C 726.628906 810 733.253906 809.835938 739.871094 809.511719 C 746.492188 809.1875 753.101562 808.699219 759.695312 808.050781 C 766.292969 807.398438 772.871094 806.589844 779.425781 805.617188 C 785.980469 804.644531 792.511719 803.511719 799.011719 802.21875 C 805.511719 800.925781 811.976562 799.472656 818.40625 797.863281 C 824.835938 796.253906 831.222656 794.484375 837.566406 792.5625 C 843.90625 790.636719 850.199219 788.558594 856.441406 786.324219 C 862.679688 784.09375 868.863281 781.707031 874.988281 779.171875 C 881.109375 776.632812 887.167969 773.949219 893.160156 771.117188 C 899.152344 768.28125 905.070312 765.300781 910.914062 762.179688 C 916.761719 759.054688 922.527344 755.789062 928.210938 752.378906 C 933.898438 748.972656 939.496094 745.425781 945.007812 741.746094 C 950.515625 738.0625 955.933594 734.246094 961.257812 730.300781 C 966.582031 726.351562 971.804688 722.273438 976.929688 718.070312 C 982.054688 713.863281 987.070312 709.535156 991.980469 705.085938 C 996.890625 700.632812 1001.691406 696.066406 1006.378906 691.378906 C 1011.066406 686.691406 1015.632812 681.890625 1020.085938 676.980469 C 1024.535156 672.070312 1028.863281 667.054688 1033.070312 661.929688 C 1037.273438 656.804688 1041.351562 651.582031 1045.300781 646.257812 C 1049.246094 640.933594 1053.0625 635.515625 1056.746094 630.007812 C 1060.425781 624.496094 1063.972656 618.898438 1067.378906 613.210938 C 1070.789062 607.527344 1074.054688 601.761719 1077.179688 595.914062 C 1080.300781 590.070312 1083.28125 584.152344 1086.117188 578.160156 C 1088.949219 572.167969 1091.632812 566.109375 1094.171875 559.988281 C 1096.707031 553.863281 1099.09375 547.679688 1101.324219 541.441406 C 1103.558594 535.199219 1105.636719 528.90625 1107.5625 522.566406 C 1109.484375 516.222656 1111.253906 509.835938 1112.863281 503.40625 C 1114.472656 496.976562 1115.925781 490.511719 1117.21875 484.011719 C 1118.511719 477.511719 1119.644531 470.980469 1120.617188 464.425781 C 1121.589844 457.871094 1122.398438 451.292969 1123.050781 444.695312 C 1123.699219 438.101562 1124.1875 431.492188 1124.511719 424.871094 C 1124.835938 418.253906 1125 411.628906 1125 405 C 1125 398.371094 1124.835938 391.746094 1124.511719 385.128906 C 1124.1875 378.507812 1123.699219 371.898438 1123.050781 365.304688 C 1122.398438 358.707031 1121.589844 352.128906 1120.617188 345.574219 C 1119.644531 339.019531 1118.511719 332.488281 1117.21875 325.988281 C 1115.925781 319.488281 1114.472656 313.023438 1112.863281 306.59375 C 1111.253906 300.164062 1109.484375 293.777344 1107.5625 287.433594 C 1105.636719 281.09375 1103.558594 274.800781 1101.324219 268.558594 C 1099.09375 262.320312 1096.707031 256.136719 1094.171875 250.011719 C 1091.632812 243.890625 1088.949219 237.832031 1086.117188 231.839844 C 1083.28125 225.847656 1080.300781 219.929688 1077.179688 214.085938 C 1074.054688 208.238281 1070.789062 202.472656 1067.378906 196.789062 C 1063.972656 191.101562 1060.425781 185.503906 1056.746094 179.992188 C 1053.0625 174.484375 1049.246094 169.066406 1045.300781 163.742188 C 1041.351562 158.417969 1037.273438 153.195312 1033.070312 148.070312 C 1028.863281 142.945312 1024.535156 137.929688 1020.085938 133.019531 C 1015.632812 128.109375 1011.066406 123.308594 1006.378906 118.621094 C 1001.691406 113.933594 996.890625 109.367188 991.980469 104.914062 C 987.070312 100.464844 982.054688 96.136719 976.929688 91.929688 C 971.804688 87.726562 966.582031 83.648438 961.257812 79.699219 C 955.933594 75.753906 950.515625 71.9375 945.007812 68.253906 C 939.496094 64.574219 933.898438 61.027344 928.210938 57.621094 C 922.527344 54.210938 916.761719 50.945312 910.914062 47.820312 C 905.070312 44.699219 899.152344 41.71875 893.160156 38.882812 C 887.167969 36.050781 881.109375 33.367188 874.988281 30.828125 C 868.863281 28.292969 862.679688 25.90625 856.441406 23.675781 C 850.199219 21.441406 843.90625 19.363281 837.566406 17.4375 C 831.222656 15.515625 824.835938 13.746094 818.40625 12.136719 C 811.976562 10.527344 805.511719 9.074219 799.011719 7.78125 C 792.511719 6.488281 785.980469 5.355469 779.425781 4.382812 C 772.871094 3.410156 766.292969 2.601562 759.695312 1.949219 C 753.101562 1.300781 746.492188 0.8125 739.871094 0.488281 C 733.253906 0.164062 726.628906 0 720 0 Z M 720 0 "/><g clip-rule="nonzero" clip-path="url(#clip1)"><path style=" stroke:none;fill-rule:nonzero;fill:rgb(3.138733%,44.709778%,98.81897%);fill-opacity:1;" d="M 890.757812 364.453125 C 909.757812 345.863281 920.917969 318.886719 920.917969 289.554688 C 920.917969 234.664062 881.117188 190.007812 832.203125 190.007812 C 814.566406 190.007812 798.183594 195.894531 784.355469 205.894531 C 766.011719 190.453125 743.265625 181.296875 718.648438 181.296875 C 694.148438 181.296875 671.496094 190.375 653.195312 205.691406 C 639.429688 195.820312 623.140625 190.011719 605.628906 190.011719 C 556.707031 190.011719 516.914062 234.671875 516.914062 289.558594 C 516.914062 318.765625 528.539062 346.304688 547.761719 364.976562 C 506.207031 386.496094 479.589844 429.277344 479.589844 477.554688 L 479.589844 532.363281 C 479.589844 539.351562 485.253906 545.015625 492.246094 545.015625 L 560.980469 545.015625 C 560.980469 545.207031 560.960938 545.390625 560.960938 545.582031 L 560.960938 615.6875 C 560.960938 622.675781 566.625 628.339844 573.617188 628.339844 L 866.113281 628.339844 C 873.101562 628.339844 878.769531 622.675781 878.769531 615.6875 L 878.769531 545.578125 C 878.769531 545.386719 878.746094 545.199219 878.746094 545.011719 L 947.488281 545.011719 C 954.480469 545.011719 960.144531 539.347656 960.144531 532.359375 L 960.144531 477.550781 C 960.144531 429.507812 932.53125 385.832031 890.757812 364.453125 Z M 504.902344 519.710938 L 504.902344 477.550781 C 504.902344 432.484375 533.859375 393.402344 576.960938 380.300781 C 581.851562 378.8125 585.367188 374.53125 585.871094 369.449219 C 586.378906 364.363281 583.777344 359.476562 579.273438 357.054688 C 556.765625 344.953125 542.226562 318.457031 542.226562 289.554688 C 542.226562 248.617188 570.667969 215.3125 605.628906 215.3125 C 616.449219 215.3125 626.621094 218.558594 635.535156 224.183594 C 618.839844 245.902344 608.695312 274.183594 608.695312 305.097656 C 608.695312 343.339844 624.660156 379.257812 650.761719 402.457031 C 603.925781 424.878906 571.402344 468.507812 563.109375 519.710938 Z M 853.457031 603.03125 L 586.273438 603.03125 L 586.273438 545.578125 C 586.273438 486.367188 624.324219 435.015625 680.949219 417.800781 C 685.839844 416.3125 689.355469 412.035156 689.859375 406.953125 C 690.367188 401.871094 687.765625 396.976562 683.261719 394.558594 C 653.34375 378.46875 634.011719 343.355469 634.011719 305.101562 C 634.011719 250.789062 671.980469 206.597656 718.652344 206.597656 C 765.320312 206.597656 803.292969 250.789062 803.292969 305.101562 C 803.292969 342.96875 784.25 377.933594 754.785156 394.179688 C 750.308594 396.644531 747.753906 401.566406 748.320312 406.648438 C 748.882812 411.730469 752.445312 415.96875 757.351562 417.402344 C 813.9375 433.910156 853.457031 486.617188 853.457031 545.582031 Z M 934.832031 519.710938 L 876.542969 519.710938 C 867.960938 468.46875 834.445312 424.011719 787.425781 401.820312 C 795.101562 394.941406 801.828125 386.980469 807.527344 378.210938 C 810.050781 376.28125 811.785156 373.453125 812.3125 370.230469 C 822.785156 351.105469 828.609375 328.726562 828.609375 305.097656 C 828.609375 274.28125 818.535156 246.085938 801.933594 224.394531 C 810.945312 218.628906 821.242188 215.304688 832.210938 215.304688 C 867.171875 215.304688 895.613281 248.613281 895.613281 289.550781 C 895.613281 318.160156 881.289062 344.546875 859.113281 356.769531 C 854.636719 359.234375 852.085938 364.15625 852.652344 369.238281 C 853.210938 374.320312 856.777344 378.5625 861.683594 379.992188 C 904.757812 392.554688 934.839844 432.671875 934.839844 477.546875 L 934.839844 519.710938 Z M 934.832031 519.710938 "/></g></g></svg>